<svg xmlns="http://www.w3.org/2000/svg" width="24.013" height="21.083" viewBox="0 0 24.013 21.083" fill="currentColor">
  <path d="M 9.933 18.962 L 2.109 18.962 L 2.109 6.334 L 13.521 6.334 C 14.737 5.839 16.052 5.639 17.36 5.748 C 18.668 5.858 19.932 6.275 21.049 6.966 L 21.049 3.174 C 21.043 2.899 20.931 2.637 20.735 2.444 C 20.539 2.251 20.276 2.143 20.001 2.142 L 17.893 2.142 L 17.893 1.07 C 17.893 0.791 17.782 0.523 17.585 0.326 C 17.387 0.128 17.12 0.018 16.841 0.018 C 16.562 0.018 16.294 0.128 16.097 0.326 C 15.9 0.523 15.789 0.791 15.789 1.07 L 15.789 2.142 L 5.265 2.142 L 5.265 0.942 C 5.258 0.811 5.225 0.683 5.168 0.565 C 5.111 0.446 5.032 0.341 4.934 0.253 C 4.836 0.166 4.722 0.099 4.598 0.056 C 4.475 0.012 4.344 -0.006 4.213 0.002 L 4.097 0.002 C 3.965 0.009 3.836 0.043 3.717 0.101 C 3.598 0.159 3.492 0.24 3.405 0.34 C 3.318 0.439 3.251 0.555 3.209 0.68 C 3.168 0.805 3.151 0.938 3.161 1.07 L 3.161 2.142 L 0.937 2.142 C 0.677 2.157 0.433 2.274 0.258 2.467 C 0.083 2.66 -0.009 2.913 0.001 3.174 L 0.001 20.142 C 0.016 20.406 0.136 20.654 0.334 20.83 C 0.532 21.007 0.792 21.097 1.057 21.082 L 12.169 21.082 C 11.299 20.519 10.541 19.8 9.933 18.962 Z M 5.265 15.802 L 7.369 15.802 L 7.369 13.698 L 5.265 13.698 L 5.265 15.802 Z M 7.369 9.49 L 5.265 9.49 L 5.265 11.594 L 7.369 11.594 L 7.369 9.49 Z M 21.937 9.09 C 20.627 7.786 18.855 7.054 17.007 7.054 C 15.159 7.054 13.386 7.786 12.077 9.09 C 11.43 9.734 10.917 10.5 10.569 11.344 C 10.22 12.188 10.042 13.093 10.045 14.006 C 10.042 15.855 10.773 17.63 12.077 18.942 C 12.717 19.596 13.482 20.116 14.326 20.471 C 15.17 20.826 16.077 21.009 16.993 21.01 C 18.38 21.019 19.738 20.615 20.894 19.848 C 22.051 19.082 22.952 17.987 23.483 16.706 C 24.013 15.424 24.15 14.013 23.874 12.654 C 23.599 11.294 22.924 10.048 21.937 9.074 L 21.937 9.09 Z M 17.937 17.982 L 17.937 18.926 C 17.937 19.138 17.852 19.341 17.702 19.491 C 17.552 19.641 17.349 19.726 17.137 19.726 C 16.925 19.726 16.721 19.641 16.571 19.491 C 16.421 19.341 16.337 19.138 16.337 18.926 L 16.337 17.966 C 16 17.851 15.693 17.661 15.441 17.41 C 15.293 17.261 15.21 17.06 15.209 16.85 C 15.209 16.637 15.293 16.434 15.443 16.284 C 15.593 16.134 15.797 16.05 16.009 16.05 C 16.22 16.049 16.423 16.133 16.573 16.282 C 16.665 16.376 16.78 16.446 16.906 16.486 C 17.033 16.525 17.167 16.532 17.297 16.507 C 17.427 16.481 17.549 16.424 17.651 16.34 C 17.753 16.257 17.833 16.149 17.884 16.026 C 17.934 15.904 17.953 15.771 17.94 15.639 C 17.926 15.507 17.88 15.381 17.806 15.272 C 17.731 15.162 17.631 15.073 17.513 15.012 C 17.396 14.951 17.265 14.92 17.133 14.922 C 16.663 14.916 16.206 14.772 15.817 14.509 C 15.428 14.246 15.125 13.874 14.945 13.44 C 14.765 13.006 14.717 12.529 14.806 12.068 C 14.895 11.607 15.117 11.182 15.445 10.846 C 15.697 10.603 16.002 10.422 16.337 10.318 L 16.337 9.342 C 16.337 9.129 16.421 8.926 16.571 8.776 C 16.721 8.626 16.925 8.542 17.137 8.542 C 17.349 8.542 17.552 8.626 17.702 8.776 C 17.852 8.926 17.937 9.129 17.937 9.342 L 17.937 10.31 C 18.262 10.421 18.558 10.606 18.801 10.85 C 18.927 11.003 18.991 11.198 18.981 11.397 C 18.971 11.595 18.887 11.783 18.746 11.923 C 18.606 12.063 18.418 12.146 18.219 12.156 C 18.021 12.165 17.826 12.1 17.673 11.974 C 17.579 11.881 17.463 11.812 17.337 11.775 C 17.21 11.737 17.076 11.732 16.946 11.759 C 16.817 11.786 16.696 11.844 16.595 11.93 C 16.494 12.015 16.415 12.123 16.366 12.246 C 16.317 12.369 16.3 12.502 16.315 12.634 C 16.33 12.765 16.377 12.89 16.453 12.999 C 16.529 13.107 16.63 13.196 16.748 13.255 C 16.866 13.315 16.997 13.345 17.129 13.342 C 17.679 13.362 18.205 13.571 18.62 13.933 C 19.034 14.295 19.312 14.789 19.406 15.331 C 19.499 15.874 19.404 16.432 19.135 16.912 C 18.866 17.393 18.44 17.766 17.929 17.97 L 17.937 17.982 Z" fill="currentColor" fill-rule="nonzero"></path>
</svg>