<svg xmlns="http://www.w3.org/2000/svg" width="24.029" height="18.477" viewBox="0 0 24.029 18.477" fill="currentColor">
  <path d="M 0.437 10.328 L 8.293 18.144 C 8.583 18.378 8.95 18.495 9.321 18.474 C 9.693 18.453 10.044 18.295 10.306 18.03 C 10.568 17.765 10.722 17.413 10.739 17.041 C 10.756 16.668 10.634 16.303 10.397 16.016 L 5.141 10.768 L 22.525 10.768 C 22.924 10.768 23.306 10.609 23.589 10.327 C 23.871 10.045 24.029 9.663 24.029 9.264 C 24.029 8.865 23.871 8.482 23.589 8.2 C 23.306 7.918 22.924 7.76 22.525 7.76 L 5.141 7.76 L 10.397 2.512 C 10.655 2.226 10.794 1.852 10.784 1.467 C 10.775 1.082 10.618 0.715 10.346 0.443 C 10.074 0.17 9.708 0.012 9.323 0.001 C 8.938 -0.01 8.564 0.127 8.277 0.384 L 0.441 8.2 C 0.301 8.34 0.19 8.505 0.115 8.688 C 0.039 8.871 0 9.066 0 9.264 C 0 9.462 0.039 9.657 0.115 9.84 C 0.19 10.022 0.301 10.188 0.441 10.328 L 0.437 10.328 Z" fill="currentColor" fill-rule="nonzero"></path>
</svg>