<svg xmlns="http://www.w3.org/2000/svg" width="24.029" height="18.477" viewBox="0 0 24.029 18.477" fill="currentColor">
  <path d="M 23.592 8.149 L 15.736 0.333 C 15.446 0.099 15.079 -0.019 14.708 0.002 C 14.336 0.023 13.985 0.182 13.723 0.447 C 13.461 0.711 13.307 1.064 13.29 1.436 C 13.273 1.808 13.395 2.173 13.632 2.461 L 18.888 7.709 L 1.504 7.709 C 1.105 7.709 0.723 7.867 0.441 8.149 C 0.158 8.431 0 8.814 0 9.213 C 0 9.612 0.158 9.994 0.441 10.276 C 0.723 10.558 1.105 10.717 1.504 10.717 L 18.888 10.717 L 13.632 15.965 C 13.374 16.251 13.235 16.625 13.245 17.01 C 13.254 17.395 13.411 17.761 13.683 18.034 C 13.955 18.307 14.321 18.465 14.706 18.476 C 15.091 18.487 15.465 18.35 15.752 18.093 L 23.588 10.277 C 23.728 10.137 23.839 9.971 23.914 9.789 C 23.99 9.606 24.029 9.411 24.029 9.213 C 24.029 9.015 23.99 8.82 23.914 8.637 C 23.839 8.454 23.728 8.289 23.588 8.149 L 23.592 8.149 Z" fill="currentColor" fill-rule="nonzero"></path>
</svg>