<svg xmlns="http://www.w3.org/2000/svg" width="18.477" height="24.029" viewBox="0 0 18.477 24.029" fill="currentColor">
  <path d="M 8.149 0.437 L 0.333 8.293 C 0.099 8.583 -0.019 8.95 0.002 9.321 C 0.023 9.693 0.182 10.044 0.447 10.306 C 0.711 10.568 1.064 10.722 1.436 10.739 C 1.808 10.756 2.173 10.634 2.461 10.397 L 7.709 5.141 L 7.709 22.525 C 7.709 22.924 7.867 23.306 8.149 23.589 C 8.431 23.871 8.814 24.029 9.213 24.029 C 9.612 24.029 9.994 23.871 10.276 23.589 C 10.558 23.306 10.717 22.924 10.717 22.525 L 10.717 5.141 L 15.965 10.397 C 16.251 10.655 16.625 10.794 17.01 10.784 C 17.395 10.775 17.761 10.618 18.034 10.346 C 18.307 10.074 18.465 9.708 18.476 9.323 C 18.487 8.938 18.35 8.564 18.093 8.277 L 10.277 0.441 C 10.137 0.301 9.971 0.19 9.789 0.115 C 9.606 0.039 9.411 0 9.213 0 C 9.015 0 8.82 0.039 8.637 0.115 C 8.454 0.19 8.289 0.301 8.149 0.441 L 8.149 0.437 Z" fill="currentColor" fill-rule="nonzero"></path>
</svg>