<svg xmlns="http://www.w3.org/2000/svg" width="18.477" height="24.029" viewBox="0 0 18.477 24.029" fill="currentColor">
  <path d="M 10.328 23.592 L 18.144 15.736 C 18.378 15.446 18.495 15.079 18.474 14.708 C 18.453 14.336 18.295 13.985 18.03 13.723 C 17.765 13.461 17.413 13.307 17.041 13.29 C 16.668 13.273 16.303 13.395 16.016 13.632 L 10.768 18.888 L 10.768 1.504 C 10.768 1.105 10.609 0.723 10.327 0.441 C 10.045 0.158 9.663 0 9.264 0 C 8.865 0 8.482 0.158 8.2 0.441 C 7.918 0.723 7.76 1.105 7.76 1.504 L 7.76 18.888 L 2.512 13.632 C 2.226 13.374 1.852 13.235 1.467 13.245 C 1.082 13.254 0.715 13.411 0.443 13.683 C 0.17 13.955 0.012 14.321 0.001 14.706 C -0.01 15.091 0.127 15.465 0.384 15.752 L 8.2 23.588 C 8.34 23.728 8.505 23.839 8.688 23.914 C 8.871 23.99 9.066 24.029 9.264 24.029 C 9.462 24.029 9.657 23.99 9.84 23.914 C 10.022 23.839 10.188 23.728 10.328 23.588 L 10.328 23.592 Z" fill="currentColor" fill-rule="nonzero"></path>
</svg>