<svg xmlns="http://www.w3.org/2000/svg" width="24.106" height="20.148" viewBox="0 0 24.106 20.148" fill="currentColor">
  <path d="M 23.349 15.94 L 0.757 15.94 C 0.66 15.933 0.563 15.945 0.472 15.977 C 0.38 16.009 0.296 16.06 0.225 16.126 C 0.154 16.192 0.098 16.272 0.059 16.36 C 0.02 16.449 0 16.545 0 16.642 C 0 16.739 0.02 16.835 0.059 16.924 C 0.098 17.012 0.154 17.092 0.225 17.158 C 0.296 17.224 0.38 17.275 0.472 17.307 C 0.563 17.339 0.66 17.351 0.757 17.344 L 23.349 17.344 C 23.446 17.351 23.543 17.339 23.634 17.307 C 23.726 17.275 23.81 17.224 23.881 17.158 C 23.952 17.092 24.009 17.012 24.047 16.924 C 24.086 16.835 24.106 16.739 24.106 16.642 C 24.106 16.545 24.086 16.449 24.047 16.36 C 24.009 16.272 23.952 16.192 23.881 16.126 C 23.81 16.06 23.726 16.009 23.634 15.977 C 23.543 15.945 23.446 15.933 23.349 15.94 Z M 23.349 18.74 L 0.757 18.74 C 0.57 18.74 0.391 18.814 0.259 18.946 C 0.127 19.078 0.053 19.257 0.053 19.444 C 0.053 19.631 0.127 19.81 0.259 19.942 C 0.391 20.074 0.57 20.148 0.757 20.148 L 23.349 20.148 C 23.536 20.148 23.715 20.074 23.847 19.942 C 23.979 19.81 24.053 19.631 24.053 19.444 C 24.053 19.257 23.979 19.078 23.847 18.946 C 23.715 18.814 23.536 18.74 23.349 18.74 Z M 4.273 0.704 L 4.273 0 L 0.757 0 C 0.57 0 0.391 0.074 0.259 0.206 C 0.127 0.338 0.053 0.517 0.053 0.704 L 0.053 4.22 L 0.757 4.22 C 1.689 4.219 2.583 3.848 3.242 3.189 C 3.901 2.53 4.272 1.636 4.273 0.704 Z M 0.757 14.532 L 4.273 14.532 L 4.273 13.832 C 4.272 12.9 3.901 12.006 3.242 11.347 C 2.583 10.688 1.689 10.317 0.757 10.316 L 0.053 10.316 L 0.053 13.832 C 0.053 13.924 0.071 14.016 0.107 14.101 C 0.142 14.186 0.194 14.263 0.259 14.328 C 0.325 14.393 0.403 14.445 0.488 14.48 C 0.573 14.515 0.665 14.533 0.757 14.532 Z M 18.429 0.704 L 18.429 0 L 5.677 0 L 5.677 0.704 C 5.675 2.008 5.156 3.258 4.234 4.181 C 3.311 5.103 2.061 5.622 0.757 5.624 L 0.053 5.624 L 0.053 8.908 L 0.757 8.908 C 2.061 8.91 3.311 9.429 4.234 10.351 C 5.156 11.274 5.675 12.524 5.677 13.828 L 5.677 14.532 L 18.429 14.532 L 18.429 13.828 C 18.431 12.524 18.95 11.274 19.872 10.351 C 20.795 9.429 22.045 8.91 23.349 8.908 L 24.053 8.908 L 24.053 5.628 L 23.349 5.628 C 22.044 5.625 20.794 5.105 19.872 4.182 C 18.95 3.259 18.431 2.009 18.429 0.704 Z M 12.053 6.564 C 12.55 6.566 13.03 6.743 13.409 7.064 C 13.788 7.385 14.042 7.829 14.126 8.319 C 14.21 8.808 14.119 9.311 13.868 9.74 C 13.618 10.169 13.224 10.496 12.757 10.664 L 12.757 11.024 C 12.757 11.211 12.683 11.39 12.551 11.522 C 12.419 11.654 12.24 11.728 12.053 11.728 C 11.866 11.728 11.687 11.654 11.555 11.522 C 11.423 11.39 11.349 11.211 11.349 11.024 L 11.349 10.784 L 10.645 10.784 C 10.458 10.784 10.279 10.71 10.147 10.578 C 10.015 10.446 9.941 10.267 9.941 10.08 C 9.941 9.893 10.015 9.714 10.147 9.582 C 10.279 9.45 10.458 9.376 10.645 9.376 L 12.053 9.376 C 12.24 9.376 12.419 9.302 12.551 9.17 C 12.683 9.038 12.757 8.859 12.757 8.672 C 12.757 8.485 12.683 8.306 12.551 8.174 C 12.419 8.042 12.24 7.968 12.053 7.968 C 11.555 7.969 11.074 7.793 10.693 7.473 C 10.312 7.152 10.057 6.708 9.973 6.217 C 9.888 5.727 9.98 5.222 10.232 4.793 C 10.484 4.364 10.88 4.038 11.349 3.872 L 11.349 3.512 C 11.349 3.325 11.423 3.146 11.555 3.014 C 11.687 2.882 11.866 2.808 12.053 2.808 C 12.24 2.808 12.419 2.882 12.551 3.014 C 12.683 3.146 12.757 3.325 12.757 3.512 L 12.757 3.752 L 13.461 3.752 C 13.648 3.752 13.827 3.826 13.959 3.958 C 14.091 4.09 14.165 4.269 14.165 4.456 C 14.165 4.643 14.091 4.822 13.959 4.954 C 13.827 5.086 13.648 5.16 13.461 5.16 L 12.053 5.16 C 11.956 5.153 11.859 5.165 11.768 5.197 C 11.676 5.229 11.592 5.28 11.521 5.346 C 11.45 5.412 11.394 5.492 11.355 5.58 C 11.316 5.669 11.296 5.765 11.296 5.862 C 11.296 5.959 11.316 6.055 11.355 6.144 C 11.394 6.232 11.45 6.312 11.521 6.378 C 11.592 6.444 11.676 6.495 11.768 6.527 C 11.859 6.559 11.956 6.571 12.053 6.564 Z M 19.833 13.832 L 19.833 14.532 L 23.349 14.532 C 23.441 14.533 23.533 14.515 23.618 14.48 C 23.704 14.445 23.781 14.393 23.847 14.328 C 23.912 14.263 23.964 14.186 23.999 14.101 C 24.035 14.016 24.053 13.924 24.053 13.832 L 24.053 10.316 L 23.349 10.316 C 22.417 10.317 21.523 10.688 20.864 11.347 C 20.205 12.006 19.834 12.9 19.833 13.832 Z M 23.349 0 L 19.833 0 L 19.833 0.704 C 19.834 1.636 20.205 2.53 20.864 3.189 C 21.523 3.848 22.417 4.219 23.349 4.22 L 24.053 4.22 L 24.053 0.704 C 24.053 0.517 23.979 0.338 23.847 0.206 C 23.715 0.074 23.536 0 23.349 0 Z" fill="currentColor" fill-rule="nonzero"></path>
</svg>