<svg xmlns="http://www.w3.org/2000/svg" width="24" height="16.872" viewBox="0 0 24 16.872" fill="currentColor">
  <path d="M 21.892 0 L 2.108 0 C 1.549 0.002 1.013 0.225 0.618 0.621 C 0.223 1.017 0.001 1.553 0 2.112 L 0 14.76 C 0.001 15.319 0.223 15.855 0.618 16.251 C 1.013 16.647 1.549 16.87 2.108 16.872 L 21.892 16.872 C 22.451 16.87 22.987 16.647 23.382 16.251 C 23.777 15.855 23.999 15.319 24 14.76 L 24 2.112 C 23.999 1.553 23.777 1.017 23.382 0.621 C 22.987 0.225 22.451 0.002 21.892 0 Z M 14.856 3.352 C 15.241 3.008 15.74 2.819 16.256 2.819 C 16.772 2.819 17.271 3.008 17.656 3.352 C 17.959 3.079 18.336 2.9 18.739 2.836 C 19.142 2.772 19.555 2.827 19.928 2.993 C 20.301 3.159 20.618 3.429 20.84 3.772 C 21.062 4.114 21.181 4.514 21.181 4.922 C 21.181 5.33 21.062 5.73 20.84 6.072 C 20.618 6.415 20.301 6.685 19.928 6.851 C 19.555 7.017 19.142 7.072 18.739 7.008 C 18.336 6.944 17.959 6.765 17.656 6.492 C 17.234 6.822 16.703 6.978 16.169 6.93 C 15.636 6.882 15.141 6.633 14.785 6.234 C 14.429 5.834 14.238 5.314 14.251 4.779 C 14.264 4.244 14.48 3.734 14.856 3.352 Z M 2.8 2.836 L 7.96 2.836 L 7.96 7.032 L 2.8 7.032 L 2.8 2.836 Z M 12 14.064 L 2.8 14.064 L 2.8 12.656 L 12 12.656 L 12 14.064 Z M 21.2 11.264 L 2.8 11.264 L 2.8 9.84 L 21.2 9.84 L 21.2 11.264 Z" fill="currentColor" fill-rule="nonzero"></path>
</svg>