<svg xmlns="http://www.w3.org/2000/svg" width="24.004" height="24" viewBox="0 0 24.004 24" fill="currentColor">
  <path d="M 4.188 1.6 C 4.184 4.836 4.184 8.06 4.184 11.316 L 11.228 11.316 L 11.332 11.208 C 11.348 11.176 11.356 11.144 11.36 11.112 L 11.36 1.488 C 11.352 1.372 11.328 1.256 11.292 1.144 C 11.212 0.636 10.864 0.212 10.38 0.036 L 3.884 0.036 C 3.884 0.088 3.856 0.128 3.884 0.156 C 4.092 0.608 4.196 1.104 4.188 1.6 Z M 8.86 9.036 L 8.86 9.02 C 8.708 9.08 8.54 9.104 8.376 9.092 L 6.828 9.092 C 6.276 8.556 6.3 8.192 6.92 7.804 C 7.356 7.804 7.8 7.824 8.244 7.804 C 8.584 7.776 8.916 7.928 9.116 8.204 C 9.084 8.444 9.204 8.716 8.86 9.036 Z M 6.444 2.608 L 6.46 2.584 C 6.64 2.364 6.884 2.2 7.16 2.124 C 7.748 2.064 8.344 2.116 8.916 2.276 C 9.112 2.508 9.188 2.816 9.12 3.112 C 8.992 3.3 8.804 3.44 8.588 3.512 L 6.924 3.512 C 6.548 3.388 6.332 2.988 6.444 2.608 Z M 6.432 5.44 C 6.432 5.44 6.44 5.416 6.444 5.4 L 6.46 5.384 L 6.828 5.02 L 8.552 5.02 C 8.7 5.048 8.844 5.108 8.964 5.2 C 9.1 5.42 9.152 5.68 9.108 5.936 L 8.74 6.336 L 6.936 6.336 C 6.548 6.228 6.324 5.824 6.432 5.44 Z M 2.9 5.948 L 2.828 6 L 2.748 5.764 C 2.556 5.788 2.508 5.924 2.408 5.988 C 1.764 6.344 1.376 7.028 1.4 7.764 L 1.4 19.816 L 22.6 19.816 C 22.6 19.76 22.6 19.708 22.6 19.652 L 22.6 7.652 C 22.54 6.784 21.96 6.04 21.132 5.772 C 20.8 5.64 20.444 5.572 20.088 5.572 L 18.44 5.572 L 18.44 4.288 L 20.732 4.288 C 20.776 4.236 20.82 4.184 20.868 4.136 C 21.104 3.932 21.232 3.624 21.204 3.312 L 21.204 0.74 C 21.136 0.448 20.972 0.188 20.74 0 L 14.512 0 C 14.316 0.156 14.16 0.352 14.056 0.58 L 14.056 3.46 C 14.044 3.668 14.124 3.868 14.272 4.012 C 14.364 4.096 14.448 4.188 14.556 4.296 L 16.804 4.296 L 16.804 5.548 L 12.804 5.548 L 12.632 5.72 L 12.632 12.268 L 12.232 12.644 L 3.292 12.644 L 2.892 12.272 L 2.9 5.948 Z M 19.38 18.164 C 19.192 18.276 18.972 18.336 18.752 18.332 L 17.896 18.332 C 17.568 18.336 17.256 18.2 17.04 17.956 C 17.04 17.856 17.076 17.74 16.964 17.668 C 16.924 17.6 17.02 17.596 17.02 17.556 C 17.008 17.38 17.1 17.208 17.252 17.12 C 17.412 17.032 17.588 16.972 17.768 16.952 C 18.144 16.924 18.516 16.924 18.892 16.952 C 19.308 16.952 19.66 17.248 19.728 17.656 C 19.696 17.868 19.568 18.056 19.38 18.164 Z M 19.332 15.432 L 17.408 15.432 C 17.008 15.38 17.06 15.032 16.932 14.784 L 17.204 14.268 C 17.404 14.152 17.636 14.108 17.864 14.148 L 19.244 14.148 C 19.848 14.536 19.876 14.892 19.332 15.432 Z M 14.532 8.572 L 19.232 8.572 C 19.444 8.676 19.612 8.844 19.716 9.056 L 19.716 12.096 C 19.64 12.36 19.432 12.568 19.164 12.644 L 14.684 12.644 C 14.416 12.568 14.208 12.356 14.144 12.084 L 14.132 8.944 L 14.532 8.572 Z M 12.756 14.7 C 12.852 14.32 13.22 14.08 13.604 14.14 L 15.024 14.14 L 15.424 14.512 C 15.468 14.792 15.408 15.076 15.256 15.312 C 15.06 15.412 14.84 15.452 14.62 15.42 L 13.136 15.42 L 12.756 15.048 L 12.756 14.7 Z M 12.864 17.2 C 13.464 16.752 14.144 16.936 14.788 16.94 C 15.088 16.916 15.36 17.116 15.432 17.408 L 15.432 17.94 C 15.22 18.192 14.9 18.332 14.572 18.312 L 13.344 18.312 C 13.22 18.196 13.068 18.12 12.904 18.084 C 12.684 17.544 12.704 17.72 12.864 17.2 Z M 11.136 18.06 L 11.136 18.048 L 10.612 18.312 C 10.26 18.312 9.836 18.288 9.412 18.312 C 9.208 18.312 9.064 18.18 8.868 18.18 C 8.776 18.18 8.684 18.032 8.588 17.948 L 8.588 17.28 L 8.852 17.096 C 9.42 16.928 10.012 16.868 10.6 16.92 L 11.128 17.188 C 11.304 17.452 11.304 17.792 11.136 18.06 Z M 8.576 14.528 L 8.576 14.516 L 8.948 14.116 L 10.772 14.116 C 11.236 14.412 11.252 14.444 11.252 15.012 L 10.852 15.412 L 8.948 15.412 C 8.888 15.344 8.832 15.272 8.736 15.304 C 8.588 15.072 8.532 14.796 8.576 14.528 Z M 4.304 14.516 C 4.444 14.324 4.64 14.184 4.868 14.116 C 5.48 14.192 6.172 13.996 6.812 14.228 L 7.076 14.8 C 6.94 14.988 7.02 15.316 6.564 15.444 L 4.672 15.444 L 4.304 15.016 L 4.304 14.516 Z M 4.488 17.132 L 4.488 17.116 C 4.632 17.004 4.804 16.936 4.984 16.924 C 5.408 16.896 5.836 16.924 6.264 16.924 C 6.424 16.924 6.524 17.116 6.664 17.04 C 6.92 17.156 6.944 17.416 7.04 17.632 C 6.928 17.7 6.992 17.848 6.94 17.944 C 6.788 18.176 6.528 18.312 6.252 18.308 C 5.828 18.348 5.4 18.348 4.976 18.308 C 4.68 18.284 4.36 18.22 4.276 17.84 C 4.28 17.788 4.28 17.736 4.276 17.684 C 4.248 17.476 4.328 17.268 4.488 17.132 Z M 18.04 11.36 C 18.188 11.36 18.328 11.36 18.42 11.196 L 18.42 10 C 18.344 9.9 18.224 9.84 18.096 9.84 L 15.592 9.84 L 15.452 9.984 L 15.452 11.184 L 15.592 11.328 L 18.04 11.36 Z M 23.636 21.556 C 23.34 21.244 22.92 21.08 22.488 21.108 L 1.512 21.108 C 1.44 21.1 1.372 21.1 1.3 21.108 C 0.964 21.148 0.648 21.284 0.396 21.508 C 0.204 21.704 0.164 21.964 0.024 22.132 L 0.024 23.64 L 0.376 24 L 23.632 24 L 24 23.636 C 24.004 23.224 24.004 22.848 24.004 22.472 C 24.012 22.128 23.88 21.8 23.636 21.556 Z M 0.548 2.892 L 2.74 2.892 L 2.904 2.724 C 2.924 2.172 2.888 1.62 2.804 1.076 C 2.672 0.476 2.156 0.036 1.544 0 C 1.244 0 0.948 0.048 0.668 0.144 C 0.588 0.232 0.508 0.312 0.424 0.388 C 0.128 0.632 -0.028 1.008 0.004 1.392 L 0.004 2.332 C 0.076 2.6 0.28 2.812 0.548 2.892 Z" fill="currentColor" fill-rule="nonzero"></path>
</svg>