<svg xmlns="http://www.w3.org/2000/svg" width="23.961" height="17.661" viewBox="0 0 23.961 17.661" fill="currentColor">
  <path d="M 23.221 0.739 C 22.748 0.266 22.106 0 21.437 0 C 20.768 0 20.126 0.266 19.653 0.739 L 8.825 11.571 L 4.297 7.047 C 3.828 6.583 3.196 6.322 2.537 6.319 C 1.878 6.315 1.243 6.57 0.77 7.028 C 0.296 7.487 0.02 8.112 0.001 8.771 C -0.018 9.43 0.222 10.07 0.669 10.555 L 0.733 10.615 L 7.037 16.923 C 7.51 17.395 8.152 17.661 8.821 17.661 C 9.49 17.661 10.132 17.395 10.605 16.923 L 23.221 4.307 C 23.456 4.072 23.642 3.794 23.769 3.488 C 23.896 3.182 23.961 2.854 23.961 2.523 C 23.961 2.191 23.896 1.863 23.769 1.557 C 23.642 1.251 23.456 0.973 23.221 0.739 Z" fill="currentColor" fill-rule="nonzero"></path>
</svg>