<svg xmlns="http://www.w3.org/2000/svg" width="16" height="16" viewBox="0 0 16 16" fill="currentColor">
  <path d="M 16 8 C 16 6.418 15.531 4.871 14.652 3.555 C 13.773 2.24 12.523 1.214 11.061 0.609 C 9.6 0.003 7.991 -0.155 6.439 0.154 C 4.887 0.462 3.462 1.224 2.343 2.343 C 1.224 3.462 0.462 4.887 0.154 6.439 C -0.155 7.991 0.003 9.6 0.609 11.061 C 1.214 12.523 2.24 13.773 3.555 14.652 C 4.871 15.531 6.418 16 8 16 C 10.119 15.993 12.15 15.147 13.649 13.649 C 15.147 12.15 15.993 10.119 16 8 Z M 8.18 3.6 C 8.269 3.645 8.341 3.718 8.384 3.808 L 9.584 6.208 L 12.248 6.608 C 12.331 6.621 12.408 6.657 12.472 6.711 C 12.535 6.765 12.583 6.836 12.608 6.916 C 12.634 6.995 12.637 7.08 12.617 7.162 C 12.597 7.243 12.555 7.317 12.496 7.376 L 10.568 9.256 L 11.024 11.908 C 11.039 11.992 11.03 12.078 10.998 12.157 C 10.967 12.236 10.913 12.305 10.845 12.355 C 10.776 12.406 10.695 12.436 10.61 12.442 C 10.525 12.449 10.44 12.431 10.364 12.392 L 7.964 11.136 L 5.6 12.4 C 5.525 12.439 5.44 12.456 5.356 12.45 C 5.271 12.444 5.19 12.414 5.122 12.364 C 5.053 12.314 5 12.246 4.968 12.168 C 4.936 12.089 4.926 12.004 4.94 11.92 L 5.392 9.268 L 3.468 7.388 C 3.409 7.328 3.368 7.254 3.348 7.172 C 3.329 7.09 3.332 7.005 3.357 6.925 C 3.383 6.845 3.43 6.774 3.493 6.719 C 3.556 6.663 3.633 6.627 3.716 6.612 L 6.376 6.212 L 7.576 3.812 C 7.629 3.704 7.722 3.622 7.835 3.582 C 7.948 3.543 8.072 3.549 8.18 3.6 Z" fill="currentColor" fill-rule="nonzero"></path>
</svg>