<svg xmlns="http://www.w3.org/2000/svg" width="24" height="24" viewBox="0 0 24 24" fill="currentColor">
  <path d="M 12 0 C 5.372 0 0 5.372 0 12 C 0 18.628 5.372 24 12 24 C 18.628 24 24 18.628 24 12 C 24 5.372 18.628 0 12 0 Z M 8.36 21.952 C 5.436 20.868 3.132 18.564 2.048 15.64 L 3.508 15.38 L 4.82 15.148 C 5.608 16.956 7.048 18.404 8.852 19.2 L 8.36 21.952 Z M 6.452 6.456 C 5.764 7.148 5.208 7.964 4.816 8.856 L 3.504 8.616 L 2.048 8.36 C 3.132 5.436 5.436 3.132 8.36 2.048 L 8.852 4.82 C 7.956 5.212 7.144 5.768 6.452 6.456 Z M 15.652 2.056 C 18.568 3.14 20.868 5.444 21.952 8.36 L 20.492 8.62 L 19.18 8.86 C 18.392 7.056 16.952 5.616 15.148 4.824 L 15.652 2.056 Z M 15.648 21.948 L 15.648 21.96 L 15.64 21.952 L 15.648 21.952 L 15.148 19.204 C 16.96 18.412 18.408 16.964 19.2 15.152 L 20.512 15.384 L 21.972 15.644 C 20.888 18.568 18.576 20.872 15.648 21.952 L 15.648 21.948 Z" fill="currentColor" fill-rule="nonzero"></path>
</svg>