<svg xmlns="http://www.w3.org/2000/svg" width="17.631" height="17.631" viewBox="0 0 17.631 17.631" fill="currentColor">
  <path d="M 17.084 14.44 C 17.434 14.79 17.631 15.266 17.631 15.762 C 17.631 16.257 17.434 16.733 17.084 17.084 C 16.733 17.434 16.257 17.631 15.762 17.631 C 15.266 17.631 14.79 17.434 14.44 17.084 L 8.816 11.46 L 3.192 17.084 C 2.841 17.434 2.365 17.631 1.87 17.631 C 1.374 17.631 0.898 17.434 0.548 17.084 C 0.197 16.733 0 16.257 0 15.762 C 0 15.266 0.197 14.79 0.548 14.44 L 6.172 8.816 L 0.548 3.192 C 0.197 2.841 0 2.365 0 1.87 C 0 1.374 0.197 0.898 0.548 0.548 C 0.898 0.197 1.374 0 1.87 0 C 2.365 0 2.841 0.197 3.192 0.548 L 8.816 6.172 L 14.44 0.548 C 14.79 0.197 15.266 0 15.762 0 C 16.257 0 16.733 0.197 17.084 0.548 C 17.434 0.898 17.631 1.374 17.631 1.87 C 17.631 2.365 17.434 2.841 17.084 3.192 L 11.46 8.816 L 17.084 14.44 Z" fill="currentColor" fill-rule="nonzero"></path>
</svg>