<svg xmlns="http://www.w3.org/2000/svg" width="24" height="24" viewBox="0 0 24 24" fill="currentColor">
  <path d="M 12.5 24 L 21.248 24 C 22.768 24 23.996 22.772 24 21.252 L 24 12.5 L 12.5 12.5 L 12.5 24 Z M 16 16 L 20.5 16 C 20.916 16.032 21.224 16.392 21.196 16.804 C 21.168 17.176 20.872 17.472 20.5 17.5 L 16 17.5 C 15.584 17.468 15.276 17.108 15.304 16.696 C 15.332 16.324 15.628 16.028 16 16 Z M 16 19 L 20.5 19 C 20.916 19.032 21.224 19.392 21.196 19.804 C 21.168 20.176 20.872 20.472 20.5 20.5 L 16 20.5 C 15.584 20.468 15.276 20.108 15.304 19.696 C 15.332 19.324 15.628 19.028 16 19 Z M 0 21.248 C 0 22.764 1.228 23.996 2.744 24 L 11.5 24 L 11.5 12.5 L 0 12.5 L 0 21.248 Z M 3.96 17.528 C 3.672 17.236 3.672 16.764 3.96 16.476 C 3.96 16.476 3.964 16.472 3.968 16.468 C 4.26 16.176 4.736 16.176 5.028 16.468 L 5.748 17.188 L 6.468 16.468 C 6.76 16.176 7.236 16.176 7.528 16.468 C 7.82 16.76 7.82 17.236 7.528 17.528 L 6.796 18.248 L 7.512 18.968 C 7.8 19.268 7.788 19.744 7.488 20.032 C 7.216 20.292 6.792 20.312 6.5 20.076 L 6.452 20.028 L 5.736 19.308 L 5.016 20.028 C 4.724 20.32 4.248 20.32 3.956 20.028 C 3.664 19.736 3.664 19.26 3.956 18.968 L 4.676 18.248 L 3.956 17.528 L 3.96 17.528 Z M 21.252 0 L 12.5 0 L 12.5 11.5 L 24 11.5 L 24 2.752 C 24 1.232 22.772 0.004 21.252 0 Z M 20.856 6.5 C 20.82 6.5 20.784 6.5 20.748 6.5 L 16.248 6.5 C 15.832 6.468 15.524 6.108 15.552 5.696 C 15.58 5.324 15.876 5.028 16.248 5 L 20.748 5 C 21.164 4.968 21.524 5.28 21.552 5.696 C 21.58 6.112 21.272 6.472 20.856 6.5 Z M 0 2.744 L 0 11.5 L 11.5 11.5 L 11.5 0 L 2.752 0 C 1.236 0 0 1.228 0 2.744 Z M 3.748 5.248 L 4.748 5.248 L 4.748 4.252 C 4.716 3.836 5.028 3.476 5.444 3.448 C 5.86 3.42 6.22 3.728 6.248 4.144 C 6.248 4.18 6.248 4.216 6.248 4.252 L 6.248 5.248 L 7.248 5.248 C 7.664 5.216 8.024 5.528 8.052 5.944 C 8.08 6.36 7.772 6.72 7.356 6.748 C 7.32 6.748 7.284 6.748 7.248 6.748 L 6.248 6.748 L 6.248 7.748 C 6.28 8.164 5.968 8.524 5.552 8.552 C 5.136 8.58 4.776 8.272 4.748 7.856 C 4.748 7.82 4.748 7.784 4.748 7.748 L 4.748 6.748 L 3.748 6.748 C 3.332 6.716 3.024 6.356 3.052 5.944 C 3.08 5.572 3.376 5.276 3.748 5.248 Z" fill="currentColor" fill-rule="nonzero"></path>
</svg>