<svg xmlns="http://www.w3.org/2000/svg" width="23.369" height="24.011" viewBox="0 0 23.369 24.011" fill="currentColor">
  <path d="M 12.913 12.556 C 12.913 12.556 12.913 12.556 12.917 12.556 C 16.385 12.54 19.185 9.716 19.169 6.248 C 19.153 2.78 16.329 -0.02 12.861 0 C 9.393 0.016 6.593 2.84 6.609 6.308 C 6.625 9.776 9.445 12.572 12.913 12.556 Z M 20.705 16.66 C 19.009 14.928 16.685 13.952 14.261 13.956 L 11.461 13.956 C 10.481 13.956 9.509 14.116 8.581 14.432 L 10.029 21.872 C 10.165 22.616 9.677 23.328 8.937 23.472 L 7.245 23.8 L 22.669 23.8 C 23.053 23.8 23.365 23.492 23.369 23.108 C 23.369 23.108 23.369 23.108 23.369 23.104 C 23.369 20.688 22.409 18.372 20.705 16.66 Z M 9.293 22.272 C 9.293 22.272 9.293 22.248 9.285 22.236 L 7.361 12.42 C 7.325 12.2 7.121 12.052 6.905 12.088 C 6.897 12.088 6.889 12.088 6.881 12.092 L 0.337 13.364 C 0.117 13.4 -0.031 13.604 0.005 13.82 C 0.005 13.828 0.005 13.836 0.009 13.848 L 1.917 23.664 C 1.945 23.884 2.149 24.036 2.369 24.008 C 2.381 24.008 2.393 24.008 2.401 24 L 8.945 22.72 C 9.165 22.692 9.321 22.492 9.293 22.272 Z M 0.905 14.104 L 1.725 13.944 L 1.885 14.744 L 1.085 14.904 L 0.905 14.104 Z M 6.245 19.432 L 6.257 19.432 C 5.941 19.488 5.613 19.448 5.317 19.32 L 5.609 20.828 L 4.789 20.984 L 4.485 19.48 C 3.841 20.084 2.829 20.048 2.225 19.404 C 1.733 18.88 1.653 18.092 2.025 17.48 L 3.961 14.608 L 6.833 16.544 C 7.561 17.044 7.749 18.04 7.249 18.768 C 7.013 19.112 6.653 19.348 6.245 19.432 Z M 7.561 22.148 L 7.401 21.348 L 8.221 21.188 L 8.381 21.988 L 7.561 22.148 Z" fill="currentColor" fill-rule="nonzero"></path>
</svg>