<svg xmlns="http://www.w3.org/2000/svg" width="24.001" height="16" viewBox="0 0 24.001 16" fill="currentColor">
  <path d="M 21.249 0 L 8.373 0 C 7.998 0.001 7.626 0.08 7.282 0.231 C 6.938 0.381 6.629 0.601 6.373 0.876 L 0.201 7.488 C 0.072 7.627 0 7.81 0 8 C 0 8.19 0.072 8.373 0.201 8.512 L 6.361 15.124 C 6.617 15.399 6.927 15.618 7.271 15.769 C 7.615 15.919 7.986 15.998 8.361 16 L 21.249 16 C 21.978 16 22.678 15.711 23.194 15.195 C 23.71 14.68 24 13.981 24.001 13.252 L 24.001 2.748 C 24 2.019 23.71 1.32 23.194 0.805 C 22.678 0.289 21.978 0 21.249 0 Z M 18.593 10.82 C 18.774 11.015 18.869 11.273 18.859 11.538 C 18.849 11.803 18.734 12.054 18.539 12.234 C 18.345 12.414 18.086 12.51 17.821 12.5 C 17.556 12.49 17.306 12.375 17.125 12.18 L 14.613 9.464 L 12.093 12.176 C 12.006 12.279 11.898 12.362 11.777 12.422 C 11.657 12.482 11.525 12.517 11.39 12.525 C 11.256 12.533 11.121 12.513 10.994 12.468 C 10.867 12.422 10.751 12.351 10.652 12.26 C 10.553 12.168 10.474 12.057 10.419 11.934 C 10.364 11.81 10.335 11.677 10.333 11.543 C 10.331 11.408 10.356 11.274 10.407 11.149 C 10.458 11.024 10.533 10.911 10.629 10.816 L 13.249 8.016 L 10.629 5.216 C 10.449 5.021 10.353 4.763 10.363 4.498 C 10.373 4.233 10.489 3.982 10.683 3.802 C 10.878 3.622 11.136 3.526 11.401 3.536 C 11.667 3.546 11.917 3.661 12.097 3.856 L 14.613 6.564 L 17.133 3.856 C 17.221 3.753 17.328 3.67 17.449 3.61 C 17.57 3.55 17.701 3.515 17.836 3.507 C 17.971 3.499 18.106 3.519 18.232 3.564 C 18.359 3.61 18.476 3.681 18.575 3.772 C 18.673 3.864 18.753 3.975 18.807 4.098 C 18.862 4.222 18.892 4.355 18.894 4.489 C 18.896 4.624 18.871 4.758 18.82 4.883 C 18.769 5.008 18.693 5.121 18.597 5.216 L 15.977 8.016 L 18.593 10.82 Z" fill="currentColor" fill-rule="nonzero"></path>
</svg>