<svg xmlns="http://www.w3.org/2000/svg" width="23.904" height="20.638" viewBox="0 0 23.904 20.638" fill="currentColor">
  <path d="M 20.728 9.648 C 20.641 9.715 20.559 9.788 20.484 9.868 C 19.86 10.492 19.248 11.124 18.608 11.732 C 18.475 11.84 18.37 11.978 18.3 12.134 C 18.231 12.291 18.199 12.461 18.208 12.632 C 18.232 14.112 18.208 15.592 18.208 17.072 C 18.204 17.256 18.14 17.434 18.025 17.578 C 17.91 17.722 17.751 17.824 17.572 17.868 C 17.412 17.927 17.242 17.953 17.072 17.944 L 3.556 17.944 C 3.411 17.948 3.269 17.913 3.142 17.843 C 3.016 17.772 2.912 17.669 2.84 17.544 C 2.722 17.357 2.673 17.135 2.7 16.916 L 2.7 3.668 C 2.706 3.494 2.765 3.326 2.87 3.187 C 2.974 3.047 3.118 2.943 3.284 2.888 C 3.435 2.852 3.592 2.84 3.748 2.852 L 15.408 2.852 C 15.636 2.76 15.808 2.504 15.992 2.316 L 17.9 0.42 C 17.644 0.352 17.424 0.268 17.192 0.268 L 3.952 0.268 C 3.593 0.139 3.221 0.049 2.844 0 C 2.033 0.182 1.312 0.642 0.805 1.299 C 0.297 1.956 0.035 2.77 0.064 3.6 L 0.064 16.596 C -0.045 17.138 -0.014 17.699 0.155 18.225 C 0.323 18.752 0.624 19.226 1.028 19.604 C 1.369 19.943 1.776 20.209 2.224 20.385 C 2.672 20.56 3.151 20.642 3.632 20.624 C 8.12 20.624 12.609 20.624 17.1 20.624 C 17.568 20.667 18.041 20.611 18.486 20.457 C 18.932 20.304 19.339 20.057 19.681 19.734 C 20.024 19.411 20.294 19.018 20.473 18.583 C 20.652 18.147 20.736 17.679 20.72 17.208 C 20.764 14.78 20.72 12.356 20.72 9.928 C 20.746 9.916 20.769 9.897 20.785 9.872 C 20.801 9.848 20.81 9.82 20.811 9.79 C 20.812 9.761 20.804 9.733 20.79 9.707 C 20.775 9.682 20.753 9.662 20.728 9.648 Z M 23.904 3.508 L 23.74 3.34 L 20.792 0.404 C 20.66 0.276 20.504 0.06 20.392 0.056 C 20.28 0.052 20.132 0.288 19.992 0.416 L 10.652 9.696 C 10.556 9.798 10.483 9.919 10.44 10.052 C 9.9 11.712 9.356 13.368 8.84 15.032 C 9.052 14.972 9.24 14.928 9.412 14.872 C 10.868 14.396 12.32 13.916 13.776 13.452 C 14.058 13.365 14.314 13.208 14.52 12.996 L 23.752 4.052 L 23.904 3.508 Z" fill="currentColor" fill-rule="nonzero"></path>
</svg>