<svg xmlns="http://www.w3.org/2000/svg" width="24.000" height="22.634" viewBox="0 0 24.000 22.634" fill="currentColor">
  <path d="M 23.508 17.322 L 15.024 1.722 C 14.713 1.197 14.271 0.763 13.74 0.461 C 13.21 0.159 12.611 0 12 0 C 11.39 0 10.791 0.159 10.26 0.461 C 9.73 0.763 9.288 1.197 8.976 1.722 L 0.496 17.322 C 0.178 17.856 0.007 18.465 0 19.086 C -0.006 19.708 0.152 20.32 0.46 20.86 C 0.767 21.4 1.213 21.849 1.75 22.16 C 2.288 22.472 2.899 22.636 3.52 22.634 L 20.48 22.634 C 20.942 22.635 21.4 22.545 21.827 22.369 C 22.254 22.193 22.642 21.935 22.969 21.608 C 23.296 21.282 23.555 20.895 23.732 20.468 C 23.909 20.041 24 19.584 24 19.122 C 23.999 18.489 23.829 17.868 23.508 17.322 Z M 12 19.822 C 11.722 19.822 11.45 19.74 11.218 19.585 C 10.987 19.43 10.806 19.21 10.7 18.953 C 10.593 18.696 10.565 18.413 10.619 18.14 C 10.674 17.866 10.808 17.616 11.005 17.419 C 11.202 17.222 11.453 17.088 11.726 17.033 C 11.999 16.979 12.282 17.007 12.539 17.113 C 12.796 17.22 13.016 17.4 13.171 17.632 C 13.326 17.864 13.408 18.136 13.408 18.414 C 13.408 18.788 13.26 19.146 12.996 19.41 C 12.732 19.674 12.374 19.822 12 19.822 Z M 13.408 14.194 C 13.371 14.54 13.208 14.859 12.949 15.092 C 12.691 15.324 12.356 15.452 12.008 15.452 C 11.661 15.452 11.326 15.324 11.067 15.092 C 10.809 14.859 10.645 14.54 10.608 14.194 L 10.608 7.158 C 10.645 6.813 10.809 6.493 11.067 6.261 C 11.326 6.029 11.661 5.9 12.008 5.9 C 12.356 5.9 12.691 6.029 12.949 6.261 C 13.208 6.493 13.371 6.813 13.408 7.158 L 13.408 14.194 Z" fill="currentColor" fill-rule="nonzero"></path>
</svg>