<svg xmlns="http://www.w3.org/2000/svg" width="24.001" height="20.849" viewBox="0 0 24.001 20.849" fill="currentColor">
  <path d="M 16.5 17.849 L 3 17.849 L 3 4.349 L 7.5 4.349 L 7.5 1.345 L 1.5 1.345 C 1.102 1.345 0.721 1.503 0.439 1.785 C 0.158 2.066 0 2.448 0 2.845 L 0 19.349 C 0 19.747 0.158 20.129 0.439 20.41 C 0.721 20.691 1.102 20.849 1.5 20.849 L 18 20.849 C 18.197 20.85 18.392 20.812 18.574 20.737 C 18.756 20.662 18.921 20.552 19.06 20.413 C 19.2 20.274 19.31 20.109 19.386 19.927 C 19.461 19.745 19.5 19.55 19.5 19.353 L 19.5 11.893 L 16.5 11.893 L 16.5 17.849 Z M 23.852 4.649 L 17.852 0.149 C 17.692 0.03 17.492 -0.021 17.295 0.008 C 17.097 0.036 16.919 0.142 16.8 0.301 C 16.704 0.431 16.653 0.588 16.652 0.749 L 16.652 3.001 L 14.248 3.001 C 12.087 3.003 10.013 3.852 8.471 5.366 C 6.929 6.879 6.042 8.937 6 11.097 C 5.998 11.267 6.054 11.432 6.159 11.566 C 6.264 11.7 6.411 11.794 6.576 11.833 C 6.741 11.872 6.914 11.854 7.068 11.781 C 7.221 11.709 7.345 11.586 7.42 11.433 L 7.596 11.081 C 8.154 9.957 9.015 9.012 10.083 8.353 C 11.15 7.693 12.381 7.346 13.636 7.349 L 16.5 7.349 L 16.5 9.597 C 16.5 9.796 16.579 9.987 16.719 10.128 C 16.859 10.269 17.049 10.348 17.248 10.349 C 17.411 10.351 17.571 10.297 17.7 10.197 L 23.7 5.697 C 23.779 5.639 23.845 5.565 23.896 5.48 C 23.946 5.396 23.979 5.302 23.993 5.205 C 24.007 5.108 24.002 5.008 23.978 4.913 C 23.954 4.818 23.911 4.728 23.852 4.649 Z" fill="currentColor" fill-rule="nonzero"></path>
</svg>