<svg xmlns="http://www.w3.org/2000/svg" width="24" height="16.371" viewBox="0 0 24 16.371" fill="currentColor">
  <path d="M 12 4.82 C 11.336 4.82 10.686 5.017 10.134 5.386 C 9.581 5.755 9.151 6.28 8.896 6.893 C 8.642 7.507 8.575 8.182 8.704 8.834 C 8.834 9.486 9.153 10.084 9.623 10.554 C 10.092 11.025 10.691 11.345 11.342 11.475 C 11.994 11.605 12.669 11.539 13.283 11.285 C 13.897 11.032 14.422 10.602 14.792 10.05 C 15.161 9.498 15.359 8.848 15.36 8.184 C 15.361 7.742 15.274 7.305 15.105 6.897 C 14.937 6.489 14.689 6.118 14.377 5.806 C 14.065 5.493 13.695 5.245 13.287 5.076 C 12.879 4.907 12.442 4.82 12 4.82 Z M 12 0 C 9.409 0.002 6.879 0.784 4.739 2.243 C 2.599 3.703 0.948 5.773 0 8.184 C 0.945 10.597 2.596 12.669 4.737 14.129 C 6.877 15.59 9.409 16.371 12 16.371 C 14.591 16.371 17.123 15.59 19.263 14.129 C 21.404 12.669 23.055 10.597 24 8.184 C 23.053 5.772 21.402 3.702 19.262 2.242 C 17.121 0.782 14.591 0.001 12 0 Z M 12 13.636 C 10.921 13.637 9.865 13.317 8.967 12.718 C 8.069 12.119 7.37 11.267 6.956 10.27 C 6.543 9.273 6.434 8.175 6.645 7.117 C 6.855 6.058 7.375 5.085 8.138 4.322 C 8.901 3.559 9.874 3.039 10.933 2.829 C 11.991 2.618 13.089 2.727 14.086 3.14 C 15.083 3.554 15.935 4.253 16.534 5.151 C 17.133 6.049 17.453 7.105 17.452 8.184 C 17.452 9.63 16.878 11.017 15.855 12.039 C 14.833 13.062 13.446 13.636 12 13.636 Z" fill="currentColor" fill-rule="nonzero"></path>
</svg>