<svg xmlns="http://www.w3.org/2000/svg" width="24" height="18.400" viewBox="0 0 24 18.400" fill="currentColor">
  <path d="M 21.884 2.416 L 12.136 2.416 L 10.196 0.108 C 10.167 0.074 10.131 0.046 10.09 0.028 C 10.049 0.009 10.005 -0.001 9.96 0 L 2.116 0 C 1.552 0.006 1.013 0.235 0.617 0.637 C 0.221 1.038 -0.001 1.58 0 2.144 L 0 16.26 C 0 16.823 0.222 17.364 0.618 17.765 C 1.014 18.165 1.553 18.394 2.116 18.4 L 21.884 18.4 C 22.447 18.394 22.986 18.165 23.382 17.765 C 23.778 17.364 24 16.823 24 16.26 L 24 4.556 C 24.001 3.992 23.779 3.451 23.383 3.05 C 22.987 2.649 22.448 2.421 21.884 2.416 Z" fill="currentColor" fill-rule="nonzero"></path>
</svg>