<svg xmlns="http://www.w3.org/2000/svg" width="19.640" height="24.002" viewBox="0 0 19.640 24.002" fill="currentColor">
  <path d="M 13.092 0.001 L 13.092 6.001 L 19.636 6.001 L 13.092 0.001 Z M 13.092 7.501 C 12.677 7.518 12.272 7.369 11.965 7.088 C 11.659 6.807 11.476 6.416 11.456 6.001 L 11.456 0.001 L 1.636 0.001 C 1.221 -0.015 0.816 0.133 0.509 0.414 C 0.203 0.695 0.02 1.086 0 1.501 L 0 22.501 C 0.02 22.916 0.203 23.307 0.509 23.588 C 0.816 23.869 1.221 24.018 1.636 24.001 L 18 24.001 C 18.414 24.012 18.817 23.862 19.123 23.582 C 19.429 23.303 19.614 22.915 19.64 22.501 L 19.64 7.501 L 13.092 7.501 Z M 11.092 19.673 L 4.028 19.673 C 3.785 19.642 3.561 19.524 3.398 19.34 C 3.236 19.156 3.147 18.919 3.147 18.673 C 3.147 18.428 3.236 18.191 3.398 18.007 C 3.561 17.823 3.785 17.704 4.028 17.673 L 11.08 17.673 C 11.323 17.704 11.547 17.823 11.71 18.007 C 11.872 18.191 11.961 18.428 11.961 18.673 C 11.961 18.919 11.872 19.156 11.71 19.34 C 11.547 19.524 11.323 19.642 11.08 19.673 L 11.092 19.673 Z M 15.108 15.645 L 4.028 15.645 C 3.785 15.614 3.561 15.496 3.398 15.312 C 3.236 15.128 3.147 14.891 3.147 14.645 C 3.147 14.4 3.236 14.163 3.398 13.979 C 3.561 13.795 3.785 13.676 4.028 13.645 L 15.108 13.645 C 15.25 13.627 15.394 13.64 15.531 13.682 C 15.668 13.724 15.794 13.794 15.901 13.889 C 16.009 13.984 16.095 14.1 16.153 14.23 C 16.212 14.361 16.243 14.502 16.243 14.645 C 16.243 14.788 16.212 14.93 16.153 15.06 C 16.095 15.191 16.009 15.307 15.901 15.401 C 15.794 15.496 15.668 15.567 15.531 15.609 C 15.394 15.651 15.25 15.663 15.108 15.645 Z" fill="currentColor" fill-rule="nonzero"></path>
</svg>