<svg xmlns="http://www.w3.org/2000/svg" width="24" height="20.965" viewBox="0 0 24 20.965" fill="currentColor">
  <path d="M 23.388 11.361 C 22.736 10.909 21.844 11.069 21.388 11.713 L 18.732 15.185 C 18.204 15.881 17.38 16.289 16.504 16.289 L 11.564 16.289 C 11.176 16.317 10.84 16.029 10.808 15.641 C 10.78 15.253 11.068 14.917 11.456 14.885 C 11.492 14.885 11.528 14.885 11.564 14.885 L 15.836 14.885 C 16.756 14.885 17.504 14.145 17.508 13.225 C 17.492 12.897 17.376 12.577 17.176 12.317 C 20.36 10.605 21.556 6.637 19.844 3.449 C 18.132 0.265 14.164 -0.931 10.976 0.781 C 7.792 2.493 6.596 6.461 8.308 9.649 C 8.484 9.973 8.684 10.285 8.912 10.573 C 7.82 10.353 6.684 10.597 5.776 11.241 L 5.244 11.621 L 5.244 19.565 L 17.456 19.565 C 18.888 19.565 20.224 18.837 20.996 17.629 L 23.74 13.365 C 24.196 12.713 24.036 11.817 23.388 11.361 Z M 13.44 2.589 L 13.44 2.229 C 13.468 1.881 13.772 1.621 14.12 1.649 C 14.428 1.673 14.676 1.921 14.7 2.229 L 14.7 2.589 C 15.244 2.741 15.712 3.085 16.02 3.557 C 16.208 3.849 16.128 4.237 15.84 4.429 C 15.552 4.621 15.16 4.541 14.968 4.253 C 14.64 3.757 13.972 3.621 13.476 3.945 C 12.98 4.273 12.844 4.941 13.168 5.437 C 13.368 5.737 13.704 5.921 14.064 5.921 C 15.356 5.917 16.404 6.961 16.408 8.249 C 16.408 9.301 15.708 10.229 14.692 10.509 L 14.692 10.865 C 14.72 11.213 14.46 11.517 14.112 11.545 C 13.764 11.573 13.46 11.313 13.432 10.965 C 13.432 10.933 13.432 10.897 13.432 10.865 L 13.432 10.489 C 12.892 10.337 12.42 9.993 12.112 9.525 C 11.924 9.233 12.004 8.845 12.292 8.653 C 12.58 8.461 12.972 8.541 13.164 8.829 C 13.488 9.329 14.156 9.473 14.656 9.145 C 15.156 8.821 15.3 8.153 14.972 7.653 C 14.772 7.345 14.428 7.161 14.06 7.161 C 12.772 7.137 11.744 6.069 11.772 4.777 C 11.792 3.765 12.464 2.881 13.432 2.589 L 13.44 2.589 Z M 3.136 10.197 L 3.136 10.189 L 0.704 10.189 C 0.32 10.189 0.004 10.501 0 10.885 L 0 20.265 C 0 20.653 0.312 20.965 0.7 20.965 L 3.136 20.965 C 3.524 20.965 3.836 20.653 3.836 20.265 L 3.836 10.885 C 3.828 10.505 3.516 10.201 3.136 10.197 Z" fill="currentColor" fill-rule="nonzero"></path>
</svg>