<svg xmlns="http://www.w3.org/2000/svg" width="21" height="24" viewBox="0 0 21 24" fill="currentColor">
  <path d="M 20.252 4 C 20.169 3.987 20.083 3.987 20 4 L 19 4 L 19 1 C 19 0.735 18.895 0.48 18.707 0.293 C 18.52 0.105 18.265 0 18 0 L 3 0 C 2.292 0.001 1.607 0.253 1.067 0.711 C 0.527 1.168 0.166 1.802 0.048 2.5 C 0.016 2.58 0 2.666 0 2.752 L 0 21.248 C -0.001 21.609 0.07 21.966 0.208 22.3 C 0.345 22.634 0.547 22.937 0.802 23.192 C 1.057 23.448 1.359 23.651 1.693 23.789 C 2.026 23.928 2.383 23.999 2.744 24 L 20.252 24 C 20.45 23.998 20.639 23.918 20.779 23.779 C 20.918 23.639 20.998 23.45 21 23.252 L 21 4.748 C 20.998 4.55 20.918 4.361 20.779 4.221 C 20.639 4.082 20.45 4.002 20.252 4 Z M 10.5 20.5 C 9.214 20.5 7.958 20.119 6.889 19.405 C 5.82 18.69 4.987 17.675 4.495 16.487 C 4.003 15.3 3.874 13.993 4.125 12.732 C 4.376 11.471 4.995 10.313 5.904 9.404 C 6.813 8.495 7.971 7.876 9.232 7.625 C 10.493 7.374 11.8 7.503 12.987 7.995 C 14.175 8.487 15.19 9.32 15.905 10.389 C 16.619 11.458 17 12.714 17 14 C 17 15.724 16.315 17.377 15.096 18.596 C 13.877 19.815 12.224 20.5 10.5 20.5 Z M 17 4 L 3 4 C 2.735 4 2.48 3.895 2.293 3.707 C 2.105 3.52 2 3.265 2 3 C 2 2.735 2.105 2.48 2.293 2.293 C 2.48 2.105 2.735 2 3 2 L 17 2 L 17 4 Z M 11.5 13.6 L 11.5 11 C 11.5 10.735 11.395 10.48 11.207 10.293 C 11.02 10.105 10.765 10 10.5 10 C 10.235 10 9.98 10.105 9.793 10.293 C 9.605 10.48 9.5 10.735 9.5 11 L 9.5 14 C 9.5 14.265 9.605 14.52 9.792 14.708 L 11.3 16.208 C 11.488 16.396 11.744 16.502 12.01 16.502 C 12.276 16.502 12.532 16.396 12.72 16.208 C 12.908 16.02 13.014 15.764 13.014 15.498 C 13.014 15.232 12.908 14.976 12.72 14.788 L 11.5 13.6 Z" fill="currentColor" fill-rule="nonzero"></path>
</svg>