<svg xmlns="http://www.w3.org/2000/svg" width="24.001" height="23.993" viewBox="0 0 24.001 23.993" fill="currentColor">
  <path d="M 23.6 10.657 L 12.828 0.333 C 12.605 0.119 12.308 0 11.998 0 C 11.689 0 11.392 0.119 11.168 0.333 L 0.4 10.657 C 0.159 10.896 0.016 11.217 0.001 11.556 C -0.014 11.895 0.1 12.227 0.32 12.485 C 0.433 12.618 0.572 12.724 0.73 12.797 C 0.887 12.871 1.059 12.909 1.232 12.909 L 2.952 12.909 L 2.952 23.249 C 2.95 23.344 2.966 23.439 3 23.528 C 3.034 23.617 3.085 23.698 3.15 23.767 C 3.216 23.836 3.294 23.892 3.381 23.931 C 3.468 23.969 3.561 23.991 3.656 23.993 L 9.56 23.993 C 9.655 23.991 9.749 23.969 9.836 23.931 C 9.923 23.892 10.001 23.836 10.067 23.767 C 10.132 23.698 10.183 23.617 10.217 23.528 C 10.251 23.439 10.267 23.344 10.264 23.249 L 10.264 16.969 L 13.732 16.969 L 13.732 23.249 C 13.73 23.345 13.746 23.44 13.78 23.529 C 13.814 23.618 13.866 23.699 13.932 23.769 C 13.997 23.838 14.076 23.893 14.164 23.932 C 14.251 23.97 14.345 23.991 14.44 23.993 L 20.344 23.993 C 20.439 23.991 20.533 23.969 20.62 23.931 C 20.707 23.892 20.785 23.836 20.851 23.767 C 20.916 23.698 20.967 23.617 21.001 23.528 C 21.035 23.439 21.051 23.344 21.048 23.249 L 21.048 12.909 L 22.768 12.909 C 22.934 12.905 23.098 12.868 23.25 12.801 C 23.402 12.734 23.539 12.637 23.653 12.517 C 23.767 12.396 23.857 12.255 23.917 12.1 C 23.976 11.945 24.005 11.779 24 11.613 C 24.002 11.435 23.967 11.259 23.898 11.094 C 23.829 10.93 23.728 10.781 23.6 10.657 Z M 21.568 2.217 C 21.573 2.026 21.501 1.841 21.369 1.702 C 21.237 1.563 21.056 1.483 20.864 1.477 L 16.124 1.477 L 21.568 6.677 L 21.568 2.217 Z" fill="currentColor" fill-rule="nonzero"></path>
</svg>