<svg xmlns="http://www.w3.org/2000/svg" width="21.000" height="21" viewBox="0 0 21.000 21" fill="currentColor">
  <path d="M 10.4 15.24 C 10.461 15.301 10.534 15.349 10.613 15.382 C 10.693 15.415 10.778 15.432 10.864 15.432 C 10.95 15.432 11.036 15.415 11.115 15.382 C 11.195 15.349 11.267 15.301 11.328 15.24 C 11.437 15.133 11.505 14.992 11.52 14.84 L 11.984 9.736 C 11.992 9.64 11.979 9.543 11.946 9.453 C 11.913 9.363 11.86 9.28 11.792 9.212 C 11.724 9.144 11.642 9.092 11.551 9.058 C 11.461 9.025 11.364 9.012 11.268 9.02 L 6.164 9.48 C 5.99 9.496 5.83 9.581 5.718 9.715 C 5.607 9.849 5.553 10.022 5.568 10.196 C 5.586 10.347 5.654 10.488 5.76 10.596 L 7.152 11.988 L 0.192 18.952 C 0.131 19.013 0.083 19.085 0.05 19.165 C 0.017 19.244 0 19.33 0 19.416 C 0 19.502 0.017 19.588 0.05 19.667 C 0.083 19.747 0.131 19.819 0.192 19.88 L 1.12 20.808 C 1.244 20.93 1.411 20.999 1.584 20.999 C 1.758 20.999 1.925 20.93 2.048 20.808 L 9.004 13.848 L 10.4 15.24 Z M 19.7 0 L 1.3 0 C 0.956 0.003 0.628 0.141 0.384 0.384 C 0.141 0.627 0.003 0.956 0 1.3 L 0 14.436 L 2.624 14.436 L 2.624 2.624 L 18.376 2.624 L 18.376 18.376 L 6.564 18.376 L 6.564 21 L 19.7 21 C 20.044 20.997 20.373 20.859 20.616 20.616 C 20.859 20.373 20.997 20.044 21 19.7 L 21 1.3 C 20.997 0.956 20.859 0.627 20.616 0.384 C 20.373 0.141 20.044 0.003 19.7 0 Z" fill="currentColor" fill-rule="nonzero"></path>
</svg>