<svg xmlns="http://www.w3.org/2000/svg" width="24" height="24" viewBox="0 0 24 24" fill="currentColor">
  <path d="M 12 0 C 9.627 0 7.307 0.704 5.333 2.022 C 3.36 3.341 1.822 5.215 0.913 7.408 C 0.005 9.601 -0.232 12.013 0.231 14.341 C 0.694 16.669 1.836 18.807 3.515 20.485 C 5.193 22.164 7.331 23.306 9.659 23.769 C 11.987 24.232 14.399 23.995 16.592 23.087 C 18.785 22.178 20.659 20.64 21.978 18.667 C 23.296 16.693 24 14.373 24 12 C 24 8.817 22.736 5.765 20.485 3.515 C 18.235 1.264 15.183 0 12 0 Z M 12.8 19.12 C 12.232 19.22 11.1 19.452 10.52 19.52 C 10.277 19.529 10.036 19.475 9.821 19.363 C 9.606 19.251 9.423 19.084 9.292 18.88 C 9.154 18.683 9.065 18.455 9.034 18.216 C 9.003 17.977 9.029 17.734 9.112 17.508 L 11.36 11.252 L 9 11.252 C 9.03 10.631 9.263 10.038 9.665 9.563 C 10.066 9.089 10.613 8.76 11.22 8.628 C 11.96 8.402 12.727 8.274 13.5 8.248 C 13.978 8.291 14.419 8.521 14.728 8.888 C 14.866 9.086 14.955 9.314 14.987 9.554 C 15.019 9.793 14.993 10.037 14.912 10.264 L 12.644 16.5 L 15 16.5 C 15.001 17.126 14.781 17.732 14.378 18.211 C 13.976 18.691 13.417 19.013 12.8 19.12 Z M 13.52 7.52 C 13.223 7.524 12.932 7.44 12.683 7.278 C 12.435 7.117 12.239 6.885 12.122 6.613 C 12.005 6.34 11.971 6.039 12.025 5.747 C 12.079 5.455 12.218 5.186 12.425 4.974 C 12.632 4.761 12.898 4.615 13.188 4.553 C 13.478 4.491 13.78 4.517 14.056 4.627 C 14.331 4.737 14.568 4.926 14.736 5.17 C 14.904 5.415 14.996 5.703 15 6 C 15 6.398 14.842 6.779 14.561 7.061 C 14.279 7.342 13.898 7.5 13.5 7.5 L 13.52 7.52 Z" fill="currentColor" fill-rule="nonzero"></path>
</svg>