<svg xmlns="http://www.w3.org/2000/svg" width="18" height="24" viewBox="0 0 18 24" fill="currentColor">
  <path d="M 17.5 9 L 16 9 L 16 7 C 16 5.143 15.263 3.363 13.95 2.05 C 12.637 0.737 10.857 0 9 0 C 7.143 0 5.363 0.737 4.05 2.05 C 2.737 3.363 2 5.143 2 7 L 2 9 L 0.5 9 C 0.367 9 0.24 9.053 0.146 9.146 C 0.053 9.24 0 9.367 0 9.5 L 0 22 C 0 22.53 0.211 23.039 0.586 23.414 C 0.961 23.789 1.47 24 2 24 L 16 24 C 16.53 24 17.039 23.789 17.414 23.414 C 17.789 23.039 18 22.53 18 22 L 18 9.5 C 18 9.367 17.947 9.24 17.854 9.146 C 17.76 9.053 17.633 9 17.5 9 Z M 10.496 19.444 C 10.505 19.514 10.498 19.585 10.477 19.652 C 10.456 19.72 10.421 19.782 10.374 19.834 C 10.327 19.887 10.269 19.929 10.205 19.957 C 10.14 19.986 10.071 20.001 10 20 L 8 20 C 7.93 20 7.86 19.985 7.796 19.956 C 7.732 19.927 7.675 19.885 7.628 19.833 C 7.581 19.78 7.546 19.719 7.524 19.652 C 7.503 19.585 7.496 19.514 7.504 19.444 L 7.82 16.608 C 7.48 16.359 7.227 16.008 7.098 15.607 C 6.969 15.206 6.97 14.774 7.101 14.373 C 7.232 13.972 7.487 13.623 7.828 13.375 C 8.169 13.128 8.58 12.995 9.002 12.995 C 9.424 12.995 9.835 13.128 10.176 13.375 C 10.517 13.623 10.772 13.972 10.903 14.373 C 11.034 14.774 11.035 15.206 10.906 15.607 C 10.777 16.008 10.524 16.359 10.184 16.608 L 10.496 19.444 Z M 13 7 L 13 9 L 5 9 L 5 7 C 5 5.939 5.421 4.922 6.172 4.172 C 6.922 3.421 7.939 3 9 3 C 10.061 3 11.078 3.421 11.828 4.172 C 12.579 4.922 13 5.939 13 7 Z" fill="currentColor" fill-rule="nonzero"></path>
</svg>