<svg xmlns="http://www.w3.org/2000/svg" width="24" height="20" viewBox="0 0 24 20" fill="currentColor">
  <path d="M 2 4 L 22 4 C 22.53 4 23.039 3.789 23.414 3.414 C 23.789 3.039 24 2.53 24 2 C 24 1.47 23.789 0.961 23.414 0.586 C 23.039 0.211 22.53 0 22 0 L 2 0 C 1.47 0 0.961 0.211 0.586 0.586 C 0.211 0.961 0 1.47 0 2 C 0 2.53 0.211 3.039 0.586 3.414 C 0.961 3.789 1.47 4 2 4 Z M 22 16 L 2 16 C 1.47 16 0.961 16.211 0.586 16.586 C 0.211 16.961 0 17.47 0 18 C 0 18.53 0.211 19.039 0.586 19.414 C 0.961 19.789 1.47 20 2 20 L 22 20 C 22.53 20 23.039 19.789 23.414 19.414 C 23.789 19.039 24 18.53 24 18 C 24 17.47 23.789 16.961 23.414 16.586 C 23.039 16.211 22.53 16 22 16 Z M 22 8 L 2 8 C 1.47 8 0.961 8.211 0.586 8.586 C 0.211 8.961 0 9.47 0 10 C 0 10.53 0.211 11.039 0.586 11.414 C 0.961 11.789 1.47 12 2 12 L 22 12 C 22.53 12 23.039 11.789 23.414 11.414 C 23.789 11.039 24 10.53 24 10 C 24 9.47 23.789 8.961 23.414 8.586 C 23.039 8.211 22.53 8 22 8 Z" fill="currentColor" fill-rule="nonzero"></path>
</svg>