<svg xmlns="http://www.w3.org/2000/svg" width="24" height="24" viewBox="0 0 24 24" fill="currentColor">
  <path d="M 12 0 C 9.627 0 7.307 0.704 5.333 2.022 C 3.36 3.341 1.822 5.215 0.913 7.408 C 0.005 9.601 -0.232 12.013 0.231 14.341 C 0.694 16.669 1.836 18.807 3.515 20.485 C 5.193 22.164 7.331 23.306 9.659 23.769 C 11.987 24.232 14.399 23.995 16.592 23.087 C 18.785 22.178 20.659 20.64 21.978 18.667 C 23.296 16.693 24 14.373 24 12 C 24 8.817 22.736 5.765 20.485 3.515 C 18.235 1.264 15.183 0 12 0 Z M 13.156 19.26 L 13.156 19.908 C 13.156 20.215 13.034 20.509 12.817 20.725 C 12.601 20.942 12.307 21.064 12 21.064 C 11.693 21.064 11.399 20.942 11.183 20.725 C 10.966 20.509 10.844 20.215 10.844 19.908 L 10.844 19.256 C 9.849 18.978 8.988 18.351 8.42 17.488 C 8.267 17.232 8.218 16.928 8.285 16.637 C 8.351 16.347 8.527 16.093 8.775 15.929 C 9.024 15.765 9.326 15.703 9.619 15.757 C 9.912 15.81 10.173 15.975 10.348 16.216 C 10.536 16.502 10.794 16.734 11.099 16.89 C 11.403 17.046 11.743 17.121 12.085 17.106 C 12.426 17.092 12.759 16.988 13.049 16.807 C 13.339 16.625 13.576 16.372 13.739 16.071 C 13.901 15.77 13.983 15.432 13.976 15.09 C 13.968 14.748 13.872 14.413 13.697 14.12 C 13.522 13.826 13.273 13.583 12.976 13.414 C 12.678 13.245 12.342 13.156 12 13.156 C 10.975 13.138 9.991 12.754 9.225 12.074 C 8.459 11.393 7.963 10.461 7.825 9.445 C 7.687 8.43 7.917 7.399 8.474 6.539 C 9.031 5.678 9.877 5.046 10.86 4.756 L 10.86 4.092 C 10.851 3.935 10.874 3.777 10.928 3.629 C 10.981 3.481 11.065 3.346 11.173 3.231 C 11.281 3.116 11.411 3.025 11.556 2.963 C 11.701 2.9 11.856 2.868 12.014 2.868 C 12.172 2.868 12.327 2.9 12.472 2.963 C 12.617 3.025 12.747 3.116 12.855 3.231 C 12.963 3.346 13.047 3.481 13.1 3.629 C 13.154 3.777 13.177 3.935 13.168 4.092 L 13.168 4.744 C 14.163 5.022 15.024 5.649 15.592 6.512 C 15.684 6.638 15.749 6.782 15.783 6.934 C 15.818 7.086 15.821 7.244 15.793 7.397 C 15.765 7.551 15.706 7.697 15.62 7.827 C 15.534 7.958 15.423 8.069 15.292 8.155 C 15.162 8.241 15.016 8.3 14.862 8.328 C 14.709 8.355 14.551 8.352 14.399 8.317 C 14.247 8.283 14.103 8.217 13.977 8.126 C 13.851 8.034 13.744 7.918 13.664 7.784 C 13.477 7.498 13.218 7.266 12.915 7.11 C 12.611 6.954 12.272 6.88 11.93 6.894 C 11.589 6.908 11.257 7.01 10.967 7.191 C 10.677 7.371 10.439 7.624 10.276 7.924 C 10.113 8.224 10.03 8.561 10.036 8.903 C 10.042 9.244 10.137 9.579 10.31 9.873 C 10.484 10.167 10.731 10.411 11.027 10.581 C 11.323 10.751 11.658 10.842 12 10.844 C 13.025 10.862 14.009 11.246 14.775 11.926 C 15.541 12.607 16.038 13.539 16.175 14.555 C 16.313 15.57 16.083 16.601 15.526 17.461 C 14.969 18.322 14.123 18.954 13.14 19.244 L 13.156 19.26 Z" fill="currentColor" fill-rule="nonzero"></path>
</svg>