<svg xmlns="http://www.w3.org/2000/svg" width="21.184" height="24" viewBox="0 0 21.184 24" fill="currentColor">
  <path d="M 10.648 12.656 C 11.899 12.65 13.121 12.274 14.158 11.574 C 15.196 10.874 16.003 9.883 16.477 8.725 C 16.95 7.566 17.07 6.294 16.821 5.067 C 16.572 3.841 15.965 2.716 15.076 1.835 C 14.188 0.954 13.058 0.356 11.829 0.117 C 10.601 -0.123 9.33 0.008 8.175 0.491 C 7.021 0.975 6.036 1.79 5.345 2.833 C 4.654 3.876 4.287 5.101 4.292 6.352 C 4.295 7.183 4.462 8.006 4.783 8.773 C 5.104 9.539 5.574 10.235 6.164 10.821 C 6.754 11.406 7.454 11.87 8.223 12.185 C 8.993 12.499 9.817 12.66 10.648 12.656 Z M 18.5 16.8 C 17.653 15.936 16.642 15.25 15.527 14.781 C 14.411 14.313 13.214 14.072 12.004 14.072 L 9.18 14.072 C 7.971 14.071 6.773 14.312 5.659 14.781 C 4.544 15.249 3.534 15.936 2.688 16.8 C 1.835 17.653 1.158 18.666 0.697 19.78 C 0.236 20.895 -0.001 22.09 0 23.296 C 0 23.483 0.074 23.662 0.206 23.794 C 0.272 23.859 0.349 23.911 0.435 23.946 C 0.52 23.982 0.612 24 0.704 24 L 20.48 24 C 20.667 24 20.846 23.926 20.978 23.794 C 21.11 23.662 21.184 23.483 21.184 23.296 C 21.184 20.861 20.219 18.525 18.5 16.8 Z" fill="currentColor" fill-rule="nonzero"></path>
</svg>