<svg xmlns="http://www.w3.org/2000/svg" width="21.559" height="21.760" viewBox="0 0 21.559 21.760" fill="currentColor">
  <path d="M 19.131 8.457 L 13.303 8.457 L 13.303 2.629 C 13.317 2.288 13.262 1.949 13.141 1.631 C 13.02 1.312 12.836 1.022 12.6 0.776 C 12.364 0.531 12.081 0.336 11.768 0.202 C 11.455 0.069 11.118 0 10.777 0 C 10.437 0 10.1 0.069 9.787 0.202 C 9.474 0.336 9.191 0.531 8.955 0.776 C 8.719 1.022 8.535 1.312 8.414 1.631 C 8.293 1.949 8.238 2.288 8.251 2.629 L 8.251 8.457 L 2.427 8.457 C 1.775 8.483 1.158 8.76 0.705 9.231 C 0.253 9.702 0 10.329 0 10.983 C 0 11.636 0.253 12.263 0.705 12.734 C 1.158 13.205 1.775 13.483 2.427 13.509 L 8.255 13.509 L 8.255 19.333 C 8.281 19.985 8.559 20.602 9.03 21.055 C 9.501 21.507 10.128 21.76 10.781 21.76 C 11.435 21.76 12.062 21.507 12.533 21.055 C 13.004 20.602 13.281 19.985 13.307 19.333 L 13.307 13.505 L 19.131 13.505 C 19.784 13.479 20.401 13.201 20.854 12.73 C 21.306 12.259 21.559 11.632 21.559 10.979 C 21.559 10.325 21.306 9.698 20.854 9.227 C 20.401 8.756 19.784 8.479 19.131 8.453 L 19.131 8.457 Z" fill="currentColor" fill-rule="nonzero"></path>
</svg>