<svg xmlns="http://www.w3.org/2000/svg" width="23.872" height="23.946" viewBox="0 0 23.872 23.946" fill="currentColor">
  <path d="M 10.075 11.094 L 10.075 1.778 C 10.097 1.299 10.303 0.847 10.65 0.516 C 10.997 0.185 11.458 0 11.937 0 C 12.417 0 12.877 0.185 13.224 0.516 C 13.571 0.847 13.777 1.299 13.799 1.778 L 13.799 11.094 C 13.777 11.573 13.571 12.025 13.224 12.356 C 12.877 12.687 12.417 12.871 11.937 12.871 C 11.458 12.871 10.997 12.687 10.65 12.356 C 10.303 12.025 10.097 11.573 10.075 11.094 Z M 19.319 2.646 C 19.028 2.427 18.662 2.331 18.301 2.378 C 17.939 2.425 17.611 2.612 17.385 2.898 C 17.159 3.184 17.054 3.547 17.093 3.91 C 17.132 4.272 17.31 4.605 17.591 4.838 C 19.011 5.957 20.067 7.472 20.626 9.191 C 21.184 10.91 21.221 12.756 20.73 14.496 C 20.24 16.236 19.244 17.792 17.869 18.966 C 16.495 20.14 14.803 20.88 13.008 21.092 C 11.213 21.305 9.395 20.981 7.784 20.16 C 6.173 19.339 4.842 18.059 3.959 16.482 C 3.075 14.905 2.68 13.101 2.821 11.299 C 2.963 9.497 3.636 7.777 4.755 6.358 C 5.2 5.789 5.712 5.276 6.279 4.83 C 6.443 4.735 6.587 4.607 6.7 4.455 C 6.814 4.303 6.896 4.129 6.94 3.945 C 6.985 3.76 6.992 3.569 6.96 3.381 C 6.929 3.194 6.86 3.015 6.757 2.856 C 6.655 2.696 6.521 2.559 6.363 2.452 C 6.206 2.346 6.029 2.272 5.843 2.236 C 5.656 2.2 5.465 2.202 5.279 2.242 C 5.093 2.282 4.918 2.36 4.763 2.47 C 2.868 3.895 1.44 5.852 0.661 8.092 C -0.117 10.332 -0.211 12.753 0.393 15.047 C 0.996 17.34 2.269 19.402 4.049 20.969 C 5.829 22.536 8.035 23.537 10.387 23.845 C 12.738 24.153 15.128 23.753 17.251 22.697 C 19.374 21.641 21.135 19.977 22.308 17.916 C 23.482 15.855 24.015 13.492 23.839 11.127 C 23.664 8.762 22.788 6.503 21.323 4.638 C 20.737 3.896 20.064 3.227 19.319 2.646 Z" fill="currentColor" fill-rule="nonzero"></path>
</svg>