<svg xmlns="http://www.w3.org/2000/svg" width="20.800" height="20.800" viewBox="0 0 20.800 20.800" fill="currentColor">
  <path d="M 20.056 5.2 L 16.344 5.2 L 16.344 0.744 C 16.344 0.547 16.266 0.357 16.126 0.218 C 15.987 0.078 15.797 0 15.6 0 L 5.2 0 C 5.003 0 4.813 0.078 4.674 0.218 C 4.534 0.357 4.456 0.547 4.456 0.744 L 4.456 5.2 L 0.744 5.2 C 0.547 5.2 0.357 5.278 0.218 5.418 C 0.078 5.557 0 5.747 0 5.944 L 0 15.6 C 0 15.797 0.078 15.987 0.218 16.126 C 0.357 16.266 0.547 16.344 0.744 16.344 L 4.456 16.344 L 4.456 20.056 C 4.456 20.253 4.534 20.443 4.674 20.582 C 4.813 20.722 5.003 20.8 5.2 20.8 L 15.6 20.8 C 15.797 20.8 15.987 20.722 16.126 20.582 C 16.266 20.443 16.344 20.253 16.344 20.056 L 16.344 16.344 L 20.056 16.344 C 20.253 16.344 20.443 16.266 20.582 16.126 C 20.722 15.987 20.8 15.797 20.8 15.6 L 20.8 5.944 C 20.8 5.747 20.722 5.557 20.582 5.418 C 20.443 5.278 20.253 5.2 20.056 5.2 Z M 5.944 1.484 L 14.856 1.484 L 14.856 5.2 L 5.944 5.2 L 5.944 1.484 Z M 14.856 19.316 L 5.944 19.316 L 5.944 12.628 L 14.856 12.628 L 14.856 19.316 Z M 19.316 14.856 L 16.344 14.856 L 16.344 12.628 L 17.084 12.628 C 17.271 12.614 17.447 12.53 17.575 12.392 C 17.702 12.255 17.773 12.074 17.773 11.886 C 17.773 11.698 17.702 11.517 17.575 11.38 C 17.447 11.242 17.271 11.158 17.084 11.144 L 3.716 11.144 C 3.529 11.158 3.353 11.242 3.225 11.38 C 3.098 11.517 3.027 11.698 3.027 11.886 C 3.027 12.074 3.098 12.255 3.225 12.392 C 3.353 12.53 3.529 12.614 3.716 12.628 L 4.46 12.628 L 4.46 14.856 L 1.484 14.856 L 1.484 6.684 L 19.316 6.684 L 19.316 14.856 Z M 17.084 9.656 L 17.828 9.656 C 17.93 9.663 18.032 9.65 18.129 9.616 C 18.226 9.582 18.314 9.529 18.389 9.459 C 18.464 9.389 18.524 9.305 18.565 9.211 C 18.605 9.117 18.627 9.016 18.627 8.914 C 18.627 8.812 18.605 8.711 18.565 8.617 C 18.524 8.523 18.464 8.439 18.389 8.369 C 18.314 8.299 18.226 8.246 18.129 8.212 C 18.032 8.178 17.93 8.165 17.828 8.172 L 17.084 8.172 C 16.897 8.186 16.721 8.27 16.593 8.408 C 16.466 8.545 16.395 8.726 16.395 8.914 C 16.395 9.102 16.466 9.283 16.593 9.42 C 16.721 9.558 16.897 9.642 17.084 9.656 Z M 8.164 15.6 L 12.628 15.6 C 12.815 15.586 12.991 15.502 13.119 15.364 C 13.246 15.227 13.317 15.046 13.317 14.858 C 13.317 14.67 13.246 14.489 13.119 14.352 C 12.991 14.214 12.815 14.13 12.628 14.116 L 8.172 14.116 C 8.07 14.109 7.968 14.122 7.871 14.156 C 7.774 14.19 7.686 14.243 7.611 14.313 C 7.536 14.383 7.476 14.467 7.435 14.561 C 7.395 14.655 7.373 14.756 7.373 14.858 C 7.373 14.96 7.395 15.061 7.435 15.155 C 7.476 15.249 7.536 15.333 7.611 15.403 C 7.686 15.473 7.774 15.526 7.871 15.56 C 7.968 15.594 8.07 15.607 8.172 15.6 L 8.164 15.6 Z M 8.164 17.828 L 12.628 17.828 C 12.815 17.814 12.991 17.73 13.119 17.592 C 13.246 17.455 13.317 17.274 13.317 17.086 C 13.317 16.898 13.246 16.717 13.119 16.58 C 12.991 16.442 12.815 16.358 12.628 16.344 L 8.172 16.344 C 8.07 16.337 7.968 16.35 7.871 16.384 C 7.774 16.418 7.686 16.471 7.611 16.541 C 7.536 16.611 7.476 16.695 7.435 16.789 C 7.395 16.883 7.373 16.984 7.373 17.086 C 7.373 17.188 7.395 17.289 7.435 17.383 C 7.476 17.477 7.536 17.561 7.611 17.631 C 7.686 17.701 7.774 17.754 7.871 17.788 C 7.968 17.822 8.07 17.835 8.172 17.828 L 8.164 17.828 Z" fill="currentColor" fill-rule="nonzero"></path>
</svg>