<svg xmlns="http://www.w3.org/2000/svg" width="24.000" height="24.003" viewBox="0 0 24.000 24.003" fill="currentColor">
  <path d="M 23.64 5.275 L 18.74 0.379 C 18.63 0.262 18.498 0.169 18.352 0.105 C 18.206 0.04 18.048 0.005 17.888 0.003 L 10.536 0.003 C 10.378 -0.008 10.219 0.015 10.07 0.07 C 9.921 0.125 9.785 0.211 9.672 0.323 C 9.554 0.428 9.458 0.556 9.389 0.699 C 9.32 0.841 9.281 0.996 9.272 1.155 C 9.265 1.313 9.29 1.472 9.345 1.621 C 9.4 1.771 9.484 1.908 9.592 2.024 C 9.7 2.141 9.831 2.234 9.976 2.3 C 10.121 2.366 10.277 2.402 10.436 2.407 L 13.724 2.407 L 13.724 7.867 L 6.824 7.867 L 6.824 1.203 C 6.824 0.884 6.698 0.579 6.473 0.354 C 6.248 0.129 5.942 0.003 5.624 0.003 L 3.168 0.003 C 2.749 0.003 2.335 0.086 1.948 0.247 C 1.562 0.408 1.211 0.644 0.917 0.942 C 0.622 1.239 0.389 1.592 0.232 1.98 C 0.075 2.368 -0.004 2.784 0 3.203 L 0 20.851 C 0.004 21.688 0.34 22.49 0.934 23.08 C 1.527 23.671 2.331 24.003 3.168 24.003 L 20.832 24.003 C 21.67 24.003 22.473 23.671 23.067 23.08 C 23.66 22.49 23.996 21.688 24 20.851 L 24 6.123 C 23.999 5.964 23.967 5.808 23.905 5.663 C 23.843 5.517 23.753 5.385 23.64 5.275 Z M 6.824 21.603 L 6.824 16.655 L 17.176 16.655 L 17.176 21.603 L 6.824 21.603 Z M 21.6 20.851 C 21.597 21.052 21.515 21.244 21.371 21.384 C 21.227 21.525 21.033 21.604 20.832 21.603 L 19.6 21.603 L 19.6 15.451 C 19.6 15.132 19.474 14.827 19.249 14.602 C 19.024 14.377 18.718 14.251 18.4 14.251 L 5.62 14.251 C 5.302 14.251 4.997 14.377 4.772 14.602 C 4.547 14.827 4.42 15.132 4.42 15.451 L 4.42 21.603 L 3.168 21.603 C 2.967 21.604 2.773 21.525 2.63 21.384 C 2.486 21.244 2.403 21.052 2.4 20.851 L 2.4 3.203 C 2.401 3.001 2.482 2.807 2.625 2.665 C 2.769 2.523 2.962 2.443 3.164 2.443 L 4.4 2.443 L 4.4 9.071 C 4.4 9.389 4.527 9.694 4.752 9.919 C 4.977 10.144 5.282 10.271 5.6 10.271 L 14.944 10.271 C 15.262 10.271 15.568 10.144 15.793 9.919 C 16.018 9.694 16.144 9.389 16.144 9.071 L 16.144 2.423 L 17.388 2.423 L 21.6 6.623 L 21.6 20.851 Z" fill="currentColor" fill-rule="nonzero"></path>
</svg>