<svg xmlns="http://www.w3.org/2000/svg" width="23.998" height="24.035" viewBox="0 0 23.998 24.035" fill="currentColor">
  <path d="M 23.632 21.669 L 19.112 17.149 C 20.534 15.305 21.304 13.042 21.304 10.713 C 21.318 8.308 20.517 5.97 19.033 4.077 C 17.549 2.185 15.468 0.851 13.129 0.292 C 10.79 -0.267 8.331 -0.019 6.151 0.998 C 3.972 2.014 2.2 3.737 1.125 5.888 C 0.049 8.039 -0.267 10.491 0.228 12.844 C 0.723 15.197 2 17.314 3.85 18.85 C 5.701 20.385 8.017 21.249 10.421 21.302 C 12.825 21.354 15.176 20.591 17.092 19.137 L 21.632 23.669 C 21.901 23.913 22.254 24.043 22.617 24.034 C 22.98 24.025 23.326 23.877 23.583 23.62 C 23.84 23.363 23.988 23.017 23.997 22.654 C 24.006 22.291 23.875 21.938 23.632 21.669 Z M 10.66 18.489 C 9.118 18.489 7.61 18.032 6.328 17.175 C 5.046 16.318 4.047 15.1 3.457 13.675 C 2.867 12.251 2.713 10.683 3.014 9.171 C 3.315 7.658 4.058 6.269 5.149 5.179 C 6.239 4.089 7.629 3.347 9.141 3.046 C 10.654 2.746 12.222 2.901 13.646 3.492 C 15.07 4.082 16.288 5.082 17.144 6.365 C 18 7.647 18.457 9.155 18.456 10.697 C 18.453 12.763 17.63 14.744 16.169 16.205 C 14.707 17.665 12.726 18.487 10.66 18.489 Z" fill="currentColor" fill-rule="nonzero"></path>
</svg>