<svg xmlns="http://www.w3.org/2000/svg" width="24.000" height="24" viewBox="0 0 24.000 24" fill="currentColor">
  <path d="M 23.52 9.928 L 20.628 8.98 C 20.514 8.659 20.38 8.345 20.228 8.04 L 21.6 5.356 C 21.662 5.225 21.683 5.078 21.659 4.935 C 21.635 4.792 21.569 4.66 21.468 4.556 L 19.468 2.556 C 19.364 2.455 19.232 2.388 19.089 2.364 C 18.946 2.341 18.799 2.361 18.668 2.424 L 15.96 3.764 C 15.655 3.613 15.341 3.479 15.02 3.364 L 14.072 0.48 C 14.026 0.34 13.936 0.218 13.816 0.132 C 13.696 0.045 13.552 -0.001 13.404 0 L 10.604 0 C 10.457 0 10.314 0.047 10.194 0.133 C 10.075 0.219 9.986 0.34 9.94 0.48 L 8.98 3.372 C 8.659 3.486 8.345 3.62 8.04 3.772 L 5.356 2.42 C 5.225 2.357 5.078 2.336 4.935 2.359 C 4.792 2.383 4.659 2.45 4.556 2.552 L 2.556 4.552 C 2.455 4.656 2.388 4.788 2.364 4.931 C 2.341 5.074 2.361 5.221 2.424 5.352 L 3.764 8.04 C 3.613 8.345 3.479 8.659 3.364 8.98 L 0.48 9.928 C 0.34 9.974 0.218 10.064 0.132 10.184 C 0.045 10.304 -0.001 10.448 0 10.596 L 0 13.396 C -0.001 13.544 0.045 13.688 0.132 13.808 C 0.218 13.928 0.34 14.018 0.48 14.064 L 3.372 15.012 C 3.487 15.333 3.621 15.647 3.772 15.952 L 2.428 18.632 C 2.366 18.763 2.345 18.91 2.369 19.053 C 2.393 19.196 2.459 19.328 2.56 19.432 L 4.56 21.432 C 4.663 21.535 4.795 21.604 4.939 21.627 C 5.082 21.651 5.23 21.629 5.36 21.564 L 8.048 20.224 C 8.353 20.375 8.667 20.509 8.988 20.624 L 9.936 23.516 C 9.981 23.656 10.069 23.778 10.188 23.865 C 10.306 23.951 10.449 23.999 10.596 24 L 13.396 24 C 13.544 24.001 13.688 23.955 13.808 23.868 C 13.928 23.782 14.018 23.66 14.064 23.52 L 15.012 20.628 C 15.333 20.513 15.647 20.379 15.952 20.228 L 18.648 21.6 C 18.779 21.662 18.926 21.683 19.069 21.659 C 19.212 21.635 19.344 21.569 19.448 21.468 L 21.448 19.468 C 21.55 19.365 21.618 19.232 21.642 19.089 C 21.665 18.946 21.644 18.799 21.58 18.668 L 20.236 15.96 C 20.387 15.655 20.521 15.341 20.636 15.02 L 23.528 14.072 C 23.667 14.024 23.787 13.934 23.872 13.814 C 23.956 13.694 24.001 13.551 24 13.404 L 24 10.604 C 24.002 10.455 23.957 10.309 23.871 10.187 C 23.785 10.066 23.662 9.975 23.52 9.928 Z M 12 16.92 C 11.027 16.92 10.076 16.631 9.267 16.091 C 8.458 15.55 7.827 14.782 7.455 13.883 C 7.082 12.984 6.985 11.995 7.175 11.04 C 7.364 10.086 7.833 9.209 8.521 8.521 C 9.209 7.833 10.086 7.364 11.04 7.175 C 11.995 6.985 12.984 7.082 13.883 7.455 C 14.782 7.827 15.55 8.458 16.091 9.267 C 16.631 10.076 16.92 11.027 16.92 12 C 16.92 13.305 16.402 14.556 15.479 15.479 C 14.556 16.402 13.305 16.92 12 16.92 Z" fill="currentColor" fill-rule="nonzero"></path>
</svg>