<svg xmlns="http://www.w3.org/2000/svg" width="23.998" height="24" viewBox="0 0 23.998 24" fill="currentColor">
  <path d="M 23.88 5.628 C 23.763 5.29 23.563 4.987 23.297 4.748 C 23.031 4.509 22.709 4.341 22.361 4.261 C 22.013 4.181 21.65 4.19 21.306 4.289 C 20.962 4.387 20.649 4.572 20.397 4.825 C 20.144 5.077 19.959 5.39 19.861 5.734 C 19.762 6.078 19.753 6.441 19.833 6.789 C 19.913 7.137 20.081 7.459 20.32 7.725 C 20.559 7.991 20.862 8.191 21.2 8.308 L 21.2 12.656 L 19.78 12.656 L 19.78 16.876 L 20.484 16.876 C 21.043 16.874 21.579 16.651 21.974 16.255 C 22.369 15.859 22.591 15.323 22.592 14.764 L 22.592 8.308 C 23.118 8.123 23.549 7.737 23.791 7.234 C 24.032 6.732 24.064 6.154 23.88 5.628 Z M 11.296 5.628 L 7.076 5.628 L 7.076 7.036 L 11.296 7.036 L 11.296 5.628 Z M 12.704 16.88 L 18.372 16.88 L 18.372 11.248 L 12.704 11.248 L 12.704 16.88 Z M 14.8 12.656 L 16.204 12.656 L 16.204 15.456 L 14.8 15.456 L 14.8 12.656 Z M 5.672 11.248 L 0 11.248 L 0 16.876 L 5.672 16.876 L 5.672 11.248 Z M 3.564 15.468 L 2.156 15.468 L 2.156 12.668 L 3.564 12.668 L 3.564 15.468 Z M 0 3.164 L 0 9.844 L 18.372 9.844 L 18.372 3.164 C 15.711 1.195 12.509 0.09 9.2 0 C 5.881 0.085 2.669 1.19 0 3.164 Z M 12.704 8.436 L 5.672 8.436 L 5.672 4.22 L 12.704 4.22 L 12.704 8.436 Z M 7.076 11.236 L 7.076 16.876 L 11.296 16.876 L 11.296 11.248 L 7.076 11.236 Z M 9.876 15.456 L 8.484 15.456 L 8.484 12.656 L 9.888 12.656 L 9.876 15.456 Z M 0 24 L 5.672 24 L 5.672 21.2 L 12.704 21.2 L 12.704 24 L 18.372 24 L 18.372 18.28 L 0 18.28 L 0 24 Z M 7.076 24 L 11.296 24 L 11.296 22.592 L 7.076 22.592 L 7.076 24 Z" fill="currentColor" fill-rule="nonzero"></path>
</svg>