<svg xmlns="http://www.w3.org/2000/svg" width="21.679" height="18.722" viewBox="0 0 21.679 18.722" fill="currentColor">
  <path d="M 1.183 2.232 L 11.299 2.232 C 11.445 2.232 11.59 2.203 11.726 2.147 C 11.861 2.091 11.984 2.009 12.088 1.905 C 12.192 1.802 12.274 1.678 12.33 1.543 C 12.386 1.408 12.415 1.263 12.415 1.116 C 12.415 0.969 12.386 0.824 12.33 0.689 C 12.274 0.554 12.192 0.43 12.088 0.327 C 11.984 0.223 11.861 0.141 11.726 0.085 C 11.59 0.029 11.445 0 11.299 0 L 1.183 0 C 0.887 0 0.603 0.118 0.394 0.327 C 0.184 0.536 0.067 0.82 0.067 1.116 C 0.067 1.412 0.184 1.696 0.394 1.905 C 0.603 2.114 0.887 2.232 1.183 2.232 Z M 12.407 5.432 L 1.183 5.432 C 0.899 5.449 0.632 5.574 0.437 5.781 C 0.242 5.988 0.134 6.262 0.134 6.546 C 0.134 6.83 0.242 7.104 0.437 7.311 C 0.632 7.518 0.899 7.643 1.183 7.66 L 12.423 7.66 C 12.575 7.669 12.727 7.647 12.87 7.595 C 13.013 7.543 13.144 7.463 13.255 7.358 C 13.366 7.254 13.454 7.128 13.514 6.988 C 13.574 6.849 13.606 6.698 13.606 6.546 C 13.606 6.394 13.574 6.243 13.514 6.104 C 13.454 5.964 13.366 5.838 13.255 5.734 C 13.144 5.629 13.013 5.549 12.87 5.497 C 12.727 5.445 12.575 5.423 12.423 5.432 L 12.407 5.432 Z M 12.407 10.844 L 1.183 10.844 C 1.031 10.835 0.879 10.857 0.736 10.909 C 0.593 10.961 0.462 11.041 0.351 11.146 C 0.24 11.25 0.152 11.376 0.091 11.516 C 0.031 11.655 0 11.806 0 11.958 C 0 12.11 0.031 12.261 0.091 12.4 C 0.152 12.54 0.24 12.666 0.351 12.77 C 0.462 12.875 0.593 12.955 0.736 13.007 C 0.879 13.059 1.031 13.081 1.183 13.072 L 12.423 13.072 C 12.707 13.055 12.973 12.93 13.168 12.723 C 13.363 12.516 13.472 12.242 13.472 11.958 C 13.472 11.674 13.363 11.4 13.168 11.193 C 12.973 10.986 12.707 10.861 12.423 10.844 L 12.407 10.844 Z M 7.383 16.248 L 1.179 16.248 C 0.884 16.248 0.601 16.365 0.392 16.574 C 0.184 16.782 0.067 17.065 0.067 17.36 C 0.067 17.655 0.184 17.938 0.392 18.146 C 0.601 18.355 0.884 18.472 1.179 18.472 L 7.403 18.472 C 7.698 18.472 7.981 18.355 8.189 18.146 C 8.398 17.938 8.515 17.655 8.515 17.36 C 8.515 17.065 8.398 16.782 8.189 16.574 C 7.981 16.365 7.698 16.248 7.403 16.248 L 7.383 16.248 Z M 19.883 14.428 L 19.119 15.184 L 19.119 11.528 C 19.119 11.25 19.008 10.983 18.812 10.787 C 18.615 10.59 18.349 10.48 18.071 10.48 C 17.793 10.48 17.526 10.59 17.33 10.787 C 17.133 10.983 17.023 11.25 17.023 11.528 L 17.023 15.172 L 16.283 14.428 C 16.189 14.319 16.073 14.23 15.943 14.167 C 15.814 14.104 15.672 14.069 15.528 14.064 C 15.384 14.058 15.24 14.082 15.106 14.135 C 14.972 14.187 14.85 14.267 14.748 14.369 C 14.646 14.471 14.566 14.592 14.513 14.727 C 14.46 14.861 14.435 15.004 14.44 15.148 C 14.446 15.293 14.48 15.434 14.543 15.564 C 14.605 15.694 14.694 15.81 14.803 15.904 L 17.315 18.416 C 17.511 18.612 17.777 18.722 18.055 18.722 C 18.332 18.722 18.598 18.612 18.795 18.416 L 21.307 15.904 C 21.418 15.811 21.508 15.695 21.572 15.564 C 21.636 15.434 21.672 15.292 21.678 15.146 C 21.684 15.001 21.659 14.856 21.606 14.721 C 21.553 14.586 21.472 14.464 21.368 14.362 C 21.265 14.26 21.141 14.18 21.005 14.129 C 20.869 14.077 20.724 14.055 20.579 14.062 C 20.434 14.07 20.292 14.108 20.163 14.174 C 20.033 14.239 19.919 14.332 19.827 14.444 L 19.883 14.428 Z M 16.283 4.348 L 17.043 3.592 L 17.043 7.22 C 17.059 7.486 17.177 7.736 17.371 7.919 C 17.565 8.102 17.822 8.203 18.089 8.203 C 18.356 8.203 18.612 8.102 18.807 7.919 C 19.001 7.736 19.118 7.486 19.135 7.22 L 19.135 3.576 L 19.879 4.316 C 20.075 4.512 20.34 4.623 20.617 4.623 C 20.895 4.623 21.161 4.514 21.357 4.318 C 21.553 4.122 21.664 3.857 21.664 3.579 C 21.664 3.302 21.555 3.036 21.359 2.84 L 18.847 0.328 C 18.75 0.231 18.634 0.153 18.507 0.1 C 18.38 0.048 18.244 0.02 18.107 0.02 C 17.969 0.02 17.833 0.048 17.706 0.1 C 17.579 0.153 17.464 0.231 17.367 0.328 L 14.823 2.812 C 14.718 2.909 14.634 3.025 14.575 3.155 C 14.517 3.285 14.485 3.426 14.483 3.568 C 14.48 3.711 14.506 3.852 14.56 3.985 C 14.613 4.117 14.693 4.237 14.794 4.337 C 14.895 4.438 15.015 4.517 15.148 4.569 C 15.28 4.622 15.422 4.648 15.564 4.644 C 15.707 4.641 15.847 4.608 15.977 4.549 C 16.106 4.49 16.223 4.405 16.319 4.3 L 16.283 4.348 Z" fill="currentColor" fill-rule="nonzero"></path>
</svg>