<svg xmlns="http://www.w3.org/2000/svg" width="24" height="24" viewBox="0 0 24 24" fill="currentColor">
  <path d="M 13.172 9.904 L 12 7.6 L 10.828 9.92 C 10.759 10.05 10.659 10.161 10.538 10.244 C 10.417 10.328 10.278 10.381 10.132 10.4 L 7.556 10.764 L 9.408 12.524 C 9.518 12.629 9.6 12.759 9.648 12.904 C 9.695 13.048 9.706 13.202 9.68 13.352 L 9.236 15.864 L 11.58 14.664 C 11.711 14.597 11.855 14.562 12.002 14.562 C 12.149 14.562 12.293 14.597 12.424 14.664 L 14.764 15.864 L 14.324 13.352 C 14.297 13.202 14.308 13.048 14.355 12.904 C 14.403 12.759 14.485 12.629 14.596 12.524 L 16.444 10.764 L 13.868 10.4 C 13.721 10.379 13.58 10.324 13.459 10.237 C 13.338 10.151 13.24 10.037 13.172 9.904 Z M 12 0 C 9.627 0 7.307 0.704 5.333 2.022 C 3.36 3.341 1.822 5.215 0.913 7.408 C 0.005 9.601 -0.232 12.013 0.231 14.341 C 0.694 16.669 1.836 18.807 3.515 20.485 C 5.193 22.164 7.331 23.306 9.659 23.769 C 11.987 24.232 14.399 23.995 16.592 23.087 C 18.785 22.178 20.659 20.64 21.978 18.667 C 23.296 16.693 24 14.373 24 12 C 24 8.817 22.736 5.765 20.485 3.515 C 18.235 1.264 15.183 0 12 0 Z M 19.376 10.252 C 19.345 10.458 19.246 10.648 19.096 10.792 L 16.224 13.524 L 16.904 17.38 C 16.932 17.549 16.913 17.723 16.848 17.882 C 16.784 18.041 16.676 18.18 16.538 18.281 C 16.399 18.383 16.235 18.444 16.064 18.458 C 15.893 18.472 15.721 18.438 15.568 18.36 L 12 16.528 L 8.428 18.36 C 8.401 18.515 8.335 18.66 8.236 18.782 C 8.137 18.904 8.008 18.999 7.862 19.057 C 7.717 19.116 7.558 19.136 7.402 19.117 C 7.246 19.097 7.098 19.038 6.971 18.945 C 6.845 18.852 6.744 18.728 6.678 18.586 C 6.613 18.443 6.585 18.286 6.597 18.129 C 6.609 17.972 6.661 17.821 6.747 17.69 C 6.834 17.559 6.953 17.452 7.092 17.38 L 7.772 13.524 L 4.9 10.8 C 4.812 10.716 4.741 10.616 4.692 10.505 C 4.643 10.394 4.616 10.274 4.613 10.153 C 4.61 10.031 4.631 9.91 4.675 9.797 C 4.718 9.684 4.784 9.58 4.868 9.492 C 5.012 9.344 5.2 9.248 5.404 9.216 L 9.404 8.652 L 11.184 5.132 C 11.27 4.99 11.391 4.873 11.535 4.792 C 11.68 4.711 11.842 4.668 12.008 4.668 C 12.174 4.668 12.336 4.711 12.481 4.792 C 12.625 4.873 12.746 4.99 12.832 5.132 L 14.612 8.652 L 18.612 9.216 C 18.848 9.257 19.059 9.388 19.202 9.581 C 19.344 9.774 19.406 10.014 19.376 10.252 Z" fill="currentColor" fill-rule="nonzero"></path>
</svg>