<svg xmlns="http://www.w3.org/2000/svg" width="24" height="15.464" viewBox="0 0 24 15.464" fill="currentColor">
  <path d="M 7.836 6.88 L 7.764 7.332 L 8.164 7.124 C 8.368 7.02 8.612 7.02 8.816 7.124 L 9.2 7.332 L 9.128 6.896 C 9.088 6.668 9.164 6.436 9.328 6.272 L 9.648 5.964 L 9.2 5.884 C 8.968 5.848 8.768 5.696 8.668 5.484 L 8.472 5.084 L 8.276 5.484 C 8.18 5.7 7.98 5.848 7.748 5.884 L 7.312 5.948 L 7.628 6.256 C 7.796 6.416 7.872 6.652 7.836 6.88 Z M 23.3 0 L 16.92 0 L 16.92 3.516 C 16.92 3.904 16.604 4.22 16.216 4.22 C 15.828 4.22 15.512 3.904 15.512 3.516 L 15.512 0.004 L 0.712 0.004 C 0.324 0 0.004 0.312 0 0.7 L 0 14.764 C 0 15.152 0.312 15.464 0.7 15.464 L 15.504 15.464 L 15.504 11.948 C 15.504 11.56 15.82 11.244 16.208 11.244 C 16.596 11.244 16.912 11.56 16.912 11.948 L 16.912 15.464 L 23.296 15.464 C 23.684 15.464 23.996 15.156 24 14.768 L 24 13.356 C 24 12.968 23.684 12.652 23.296 12.652 C 22.908 12.68 22.572 12.392 22.54 12.004 C 22.512 11.616 22.8 11.28 23.188 11.248 L 23.296 11.248 C 23.684 11.248 24 10.932 24 10.544 L 24 9.136 C 24 8.748 23.688 8.436 23.3 8.436 L 23.296 8.436 C 22.908 8.436 22.592 8.12 22.592 7.732 C 22.592 7.344 22.908 7.028 23.296 7.028 L 23.292 7.028 C 23.68 7.028 23.996 6.716 24 6.328 L 24 4.932 C 24 4.544 23.684 4.228 23.296 4.228 C 22.908 4.2 22.616 3.86 22.648 3.472 C 22.676 3.124 22.948 2.848 23.296 2.824 C 23.684 2.824 24 2.508 24 2.12 L 24 0.7 C 24 0.312 23.688 0 23.3 0 Z M 5.292 4.976 L 5.292 4.968 C 5.4 4.856 5.54 4.784 5.692 4.76 L 7.2 4.532 L 7.86 3.192 C 8.028 2.844 8.448 2.7 8.796 2.868 C 8.936 2.936 9.052 3.052 9.12 3.192 L 9.776 4.532 L 11.26 4.748 C 11.644 4.804 11.908 5.164 11.852 5.548 C 11.832 5.7 11.76 5.84 11.648 5.948 L 10.576 6.992 L 10.828 8.468 C 10.888 8.848 10.632 9.204 10.252 9.268 C 10.1 9.296 9.944 9.268 9.808 9.2 L 8.484 8.532 L 7.156 9.228 C 6.816 9.408 6.392 9.276 6.212 8.936 C 6.14 8.8 6.116 8.644 6.14 8.492 L 6.404 7.008 L 5.328 5.964 C 5.048 5.696 5.04 5.252 5.304 4.976 L 5.292 4.976 Z M 12.108 12.652 L 4.968 12.652 C 4.58 12.624 4.288 12.284 4.32 11.896 C 4.348 11.548 4.62 11.272 4.968 11.248 L 12 11.248 C 12.388 11.22 12.724 11.508 12.756 11.896 C 12.784 12.284 12.496 12.62 12.108 12.652 Z M 16.916 6.336 L 16.916 9.136 C 16.888 9.524 16.548 9.816 16.16 9.784 C 15.812 9.756 15.536 9.484 15.512 9.136 L 15.512 6.336 C 15.484 5.948 15.772 5.612 16.16 5.58 C 16.548 5.552 16.884 5.84 16.916 6.228 L 16.916 6.336 Z M 20.432 3.516 L 20.432 11.936 C 20.46 12.324 20.172 12.66 19.784 12.692 C 19.396 12.72 19.06 12.432 19.028 12.044 L 19.028 3.516 C 19 3.128 19.288 2.792 19.676 2.76 C 20.064 2.732 20.4 3.02 20.432 3.408 L 20.432 3.516 Z" fill="currentColor" fill-rule="nonzero"></path>
</svg>