<svg xmlns="http://www.w3.org/2000/svg" width="24" height="23.972" viewBox="0 0 24 23.972" fill="currentColor">
  <path d="M 12 1.986 C 13.552 1.987 15.083 2.35 16.471 3.044 C 17.859 3.738 19.067 4.745 20 5.986 L 19 5.986 L 19 7.986 L 22 7.986 C 22.21 7.986 22.414 7.92 22.584 7.797 C 22.754 7.674 22.882 7.501 22.948 7.302 L 23.948 4.302 L 22.052 3.67 L 21.652 4.87 C 20.152 2.839 18.049 1.333 15.644 0.567 C 13.238 -0.2 10.652 -0.188 8.253 0.6 C 5.855 1.388 3.766 2.913 2.284 4.957 C 0.802 7.001 0.003 9.461 0 11.986 L 2 11.986 C 2 9.334 3.054 6.79 4.929 4.915 C 6.804 3.039 9.348 1.986 12 1.986 Z M 22 11.986 C 22 14.085 21.34 16.13 20.112 17.833 C 18.885 19.536 17.153 20.809 15.162 21.473 C 13.171 22.136 11.022 22.157 9.018 21.531 C 7.015 20.905 5.259 19.665 4 17.986 L 5 17.986 L 5 15.986 L 2 15.986 C 1.79 15.986 1.586 16.052 1.416 16.175 C 1.246 16.298 1.118 16.471 1.052 16.67 L 0.052 19.67 L 1.948 20.302 L 2.348 19.102 C 3.848 21.133 5.951 22.639 8.356 23.405 C 10.762 24.172 13.348 24.16 15.747 23.372 C 18.145 22.584 20.234 21.059 21.716 19.015 C 23.198 16.97 23.997 14.511 24 11.986 L 22 11.986 Z M 12 4.986 C 10.615 4.986 9.26 5.397 8.108 6.167 C 6.956 6.936 6.059 8.03 5.529 9.31 C 4.999 10.591 4.86 11.999 5.131 13.358 C 5.401 14.717 6.069 15.964 7.049 16.944 C 8.029 17.923 9.277 18.59 10.636 18.86 C 11.995 19.13 13.403 18.99 14.683 18.46 C 15.963 17.929 17.056 17.031 17.826 15.878 C 18.595 14.726 19.005 13.371 19.004 11.986 C 19.003 10.129 18.265 8.349 16.951 7.036 C 15.638 5.723 13.857 4.986 12 4.986 Z M 13 15.938 L 13 16.99 L 11 16.99 L 11 15.986 L 9 15.986 L 9 13.986 L 12.5 13.986 C 12.633 13.986 12.76 13.933 12.854 13.839 C 12.947 13.746 13 13.618 13 13.486 C 13 13.353 12.947 13.226 12.854 13.132 C 12.76 13.039 12.633 12.986 12.5 12.986 L 11.5 12.986 C 10.882 12.984 10.286 12.753 9.828 12.338 C 9.37 11.923 9.082 11.352 9.02 10.737 C 8.958 10.122 9.126 9.506 9.491 9.007 C 9.857 8.509 10.395 8.163 11 8.038 L 11 6.986 L 13 6.986 L 13 7.986 L 15 7.986 L 15 9.986 L 11.5 9.986 C 11.367 9.986 11.24 10.039 11.146 10.132 C 11.053 10.226 11 10.353 11 10.486 C 11 10.618 11.053 10.746 11.146 10.839 C 11.24 10.933 11.367 10.986 11.5 10.986 L 12.5 10.986 C 13.122 10.983 13.722 11.211 14.185 11.627 C 14.647 12.043 14.938 12.616 15 13.235 C 15.062 13.853 14.892 14.473 14.522 14.973 C 14.153 15.473 13.61 15.817 13 15.938 Z" fill="currentColor" fill-rule="nonzero"></path>
</svg>