<svg xmlns="http://www.w3.org/2000/svg" width="21.096" height="24.004" viewBox="0 0 21.096 24.004" fill="currentColor">
  <path d="M 10.548 12.664 C 11.801 12.665 13.025 12.294 14.067 11.599 C 15.109 10.904 15.921 9.915 16.401 8.758 C 16.881 7.601 17.007 6.328 16.763 5.099 C 16.519 3.871 15.916 2.742 15.031 1.856 C 14.145 0.97 13.017 0.367 11.789 0.122 C 10.56 -0.123 9.287 0.002 8.13 0.482 C 6.973 0.961 5.983 1.772 5.287 2.814 C 4.591 3.855 4.22 5.079 4.22 6.332 C 4.219 7.163 4.383 7.987 4.701 8.755 C 5.018 9.523 5.484 10.221 6.072 10.809 C 6.66 11.397 7.357 11.864 8.125 12.182 C 8.893 12.5 9.717 12.664 10.548 12.664 Z M 18.424 16.804 C 17.584 15.939 16.578 15.252 15.467 14.783 C 14.356 14.315 13.162 14.074 11.956 14.076 L 9.156 14.076 C 7.947 14.072 6.75 14.312 5.636 14.78 C 4.522 15.249 3.514 15.937 2.672 16.804 C 0.957 18.531 -0.004 20.867 0 23.3 C -0.001 23.392 0.017 23.484 0.052 23.569 C 0.087 23.654 0.139 23.732 0.204 23.798 C 0.269 23.863 0.346 23.915 0.431 23.95 C 0.516 23.986 0.608 24.004 0.7 24.004 L 20.396 24.004 C 20.488 24.004 20.58 23.986 20.665 23.95 C 20.75 23.915 20.827 23.863 20.892 23.798 C 20.957 23.732 21.009 23.654 21.044 23.569 C 21.079 23.484 21.097 23.392 21.096 23.3 C 21.1 20.867 20.139 18.531 18.424 16.804 Z" fill="currentColor" fill-rule="nonzero"></path>
</svg>